<svg width="644" height="143" viewBox="0 0 644 143" fill="none" xmlns="http://www.w3.org/2000/svg">
<g style="mix-blend-mode:color-dodge">
<path d="M91.4818 41.0349L82.1748 92.6504L71.7409 92.6089L77.7937 59.1847L57.977 92.5543L50.0591 92.5229L42.2742 58.9697L36.2212 92.4679L25.7873 92.4265L35.1683 40.8113L46.9342 40.858L56.4759 79.2282L79.7159 40.9882L91.4818 41.0349ZM119.336 41.1455L113.586 73.0169C113.383 74.3975 113.28 75.3591 113.278 75.9017C113.268 78.467 114.025 80.4434 115.549 81.8308C117.073 83.1689 119.241 83.8435 122.053 83.8546C125.407 83.868 128.149 82.9662 130.278 81.1493C132.456 79.2832 133.872 76.6002 134.528 73.1001L140.278 41.2287L150.712 41.2701L144.961 73.1415C144.154 77.5783 142.536 81.3213 140.107 84.3703C137.678 87.37 134.733 89.6277 131.274 91.1433C127.864 92.6098 124.186 93.3352 120.239 93.3195C115.01 93.2987 110.773 91.9252 107.527 89.199C104.332 86.473 102.744 82.5693 102.764 77.488C102.769 76.1067 102.923 74.6026 103.226 72.9758L108.976 41.1044L119.336 41.1455ZM170.612 85.0834L187.632 85.151L186.194 93.0634L158.741 92.9544L168.122 41.3392L178.481 41.3803L170.612 85.0834ZM244.636 41.643L243.123 49.7771L229.434 49.7227L221.565 93.2038L211.131 93.1624L219 49.6813L205.236 49.6266L206.748 41.4926L244.636 41.643ZM269.955 41.7435L260.648 93.359L250.214 93.3176L259.595 41.7024L269.955 41.7435ZM290.08 85.5578L307.1 85.6254L305.663 93.5377L278.209 93.4287L287.59 41.8136L297.95 41.8547L290.08 85.5578ZM339.315 42.0189L330.008 93.6344L319.574 93.593L328.955 41.9778L339.315 42.0189ZM391.821 93.8798L381.387 93.8384L364.434 58.3248L358.003 93.7455L347.569 93.7041L356.95 42.0149L367.31 42.0561L384.337 77.644L390.768 42.1492L401.128 42.1904L391.821 93.8798ZM411.633 68.0583C412.542 62.9805 414.508 58.4496 417.533 54.4656C420.559 50.4322 424.271 47.3143 428.671 45.1117C433.07 42.8599 437.737 41.7437 442.67 41.7633C448.491 41.7864 453.271 43.2361 457.009 46.1123C460.796 48.9393 463.075 52.9197 463.844 58.0535L451.93 58.0062C451.149 55.8324 449.824 54.1745 447.953 53.0324C446.083 51.8903 443.767 51.3137 441.004 51.3028C437.946 51.2906 435.106 51.97 432.486 53.3409C429.866 54.7119 427.663 56.6765 425.877 59.2348C424.09 61.793 422.895 64.7483 422.289 68.1006C422.038 69.2836 421.909 70.6398 421.903 72.1691C421.887 76.2144 423.059 79.4011 425.417 81.7291C427.826 84.008 431.126 85.1558 435.32 85.1724C439.217 85.1879 442.625 84.1408 445.544 82.031C448.513 79.9215 450.72 76.9949 452.165 73.2512L434.405 73.1807L435.768 65.3421L463.74 65.4531L462.076 74.4746C460.73 78.0706 458.645 81.3924 455.821 84.4398C452.997 87.4873 449.632 89.9406 445.727 91.7998C441.823 93.6097 437.651 94.5058 433.211 94.4882C428.82 94.4707 424.951 93.5673 421.603 91.778C418.305 89.9889 415.725 87.512 413.863 84.3472C412.05 81.1334 411.152 77.4298 411.169 73.2365C411.176 71.5591 411.33 69.8331 411.633 68.0583ZM493.178 42.6298L487.427 74.5013C487.224 75.8818 487.122 76.8434 487.12 77.3861C487.11 79.9514 487.866 81.9277 489.39 83.3151C490.914 84.6532 493.082 85.3278 495.894 85.339C499.249 85.3523 501.991 84.4505 504.119 82.6336C506.297 80.7676 507.714 78.0845 508.369 74.5844L514.12 42.713L524.554 42.7544L518.803 74.6258C517.996 79.0627 516.378 82.8056 513.948 85.8546C511.519 88.8544 508.575 91.112 505.115 92.6276C501.706 94.0941 498.027 94.8195 494.081 94.8038C488.851 94.7831 484.614 93.4096 481.369 90.6833C478.173 87.9573 476.585 84.0536 476.605 78.9723C476.611 77.591 476.765 76.0869 477.067 74.4601L482.818 42.5887L493.178 42.6298ZM566.069 84.7296L545.423 84.6476L540.278 94.4693L529.4 94.4261L557.355 42.8106L569.417 42.8585L578.61 94.6214L567.658 94.578L566.069 84.7296ZM564.769 76.6584L561.156 54.7398L549.673 76.5984L564.769 76.6584ZM604.824 86.8075L621.844 86.875L620.406 94.7874L592.952 94.6784L602.333 43.0632L612.693 43.1044L604.824 86.8075Z" fill="#FF5ABD"/>
</g>
<g style="mix-blend-mode:color-dodge" filter="url(#filter0_d_6_30)">
<path d="M85.4818 41.0111L76.1748 92.6265L65.7409 92.5851L71.7937 59.1609L51.977 92.5305L44.0591 92.499L36.2742 58.9458L30.2212 92.4441L19.7873 92.4027L29.1683 40.7875L40.9342 40.8342L50.4759 79.2044L73.7159 40.9644L85.4818 41.0111ZM113.336 41.1217L107.586 72.9931C107.383 74.3736 107.28 75.3352 107.278 75.8779C107.268 78.4432 108.025 80.4196 109.549 81.807C111.073 83.145 113.241 83.8196 116.053 83.8308C119.407 83.8441 122.149 82.9423 124.278 81.1254C126.456 79.2594 127.872 76.5763 128.528 73.0762L134.278 41.2048L144.712 41.2463L138.961 73.1177C138.154 77.5545 136.536 81.2974 134.107 84.3465C131.678 87.3462 128.733 89.6039 125.274 91.1195C121.864 92.5859 118.186 93.3113 114.239 93.2957C109.01 93.2749 104.773 91.9014 101.527 89.1752C98.3315 86.4491 96.7437 82.5455 96.7638 77.4642C96.7693 76.0828 96.9233 74.5788 97.2258 72.952L102.976 41.0805L113.336 41.1217ZM164.612 85.0596L181.632 85.1272L180.194 93.0395L152.741 92.9305L162.122 41.3154L172.481 41.3565L164.612 85.0596ZM238.636 41.6192L237.123 49.7532L223.434 49.6989L215.565 93.18L205.131 93.1386L213 49.6575L199.236 49.6028L200.748 41.4687L238.636 41.6192ZM263.955 41.7197L254.648 93.3352L244.214 93.2937L253.595 41.6786L263.955 41.7197ZM284.08 85.534L301.1 85.6015L299.663 93.5139L272.209 93.4049L281.59 41.7897L291.95 41.8309L284.08 85.534ZM333.315 41.9951L324.008 93.6105L313.574 93.5691L322.955 41.954L333.315 41.9951ZM385.821 93.856L375.387 93.8145L358.434 58.301L352.003 93.7217L341.569 93.6803L350.95 41.9911L361.31 42.0322L378.337 77.6201L384.768 42.1254L395.128 42.1665L385.821 93.856ZM405.633 68.0344C406.542 62.9567 408.508 58.4258 411.533 54.4418C414.559 50.4084 418.271 47.2904 422.671 45.0879C427.07 42.836 431.737 41.7199 436.67 41.7395C442.491 41.7626 447.271 43.2122 451.009 46.0884C454.796 48.9155 457.075 52.8959 457.844 58.0297L445.93 57.9823C445.149 55.8086 443.824 54.1506 441.953 53.0085C440.083 51.8664 437.767 51.2899 435.004 51.2789C431.946 51.2668 429.106 51.9462 426.486 53.3171C423.866 54.6881 421.663 56.6527 419.877 59.2109C418.09 61.7692 416.895 64.7245 416.289 68.0767C416.038 69.2598 415.909 70.6159 415.903 72.1452C415.887 76.1905 417.059 79.3772 419.417 81.7053C421.826 83.9842 425.126 85.132 429.32 85.1486C433.217 85.1641 436.625 84.1169 439.544 82.0072C442.513 79.8976 444.72 76.971 446.165 73.2274L428.405 73.1569L429.768 65.3182L457.74 65.4293L456.076 74.4508C454.73 78.0468 452.645 81.3685 449.821 84.416C446.997 87.4635 443.632 89.9168 439.727 91.776C435.823 93.5858 431.651 94.4819 427.211 94.4643C422.82 94.4469 418.951 93.5435 415.603 91.7542C412.305 89.9651 409.725 87.4882 407.863 84.3234C406.05 81.1095 405.152 77.4059 405.169 73.2126C405.176 71.5353 405.33 69.8092 405.633 68.0344ZM487.178 42.606L481.427 74.4774C481.224 75.858 481.122 76.8196 481.12 77.3622C481.11 79.9275 481.866 81.9039 483.39 83.2913C484.914 84.6293 487.082 85.304 489.894 85.3151C493.249 85.3284 495.991 84.4267 498.119 82.6098C500.297 80.7437 501.714 78.0607 502.369 74.5606L508.12 42.6891L518.554 42.7306L512.803 74.602C511.996 79.0388 510.378 82.7818 507.948 85.8308C505.519 88.8305 502.575 91.0882 499.115 92.6038C495.706 94.0703 492.027 94.7957 488.081 94.78C482.851 94.7592 478.614 93.3857 475.369 90.6595C472.173 87.9335 470.585 84.0298 470.605 78.9485C470.611 77.5672 470.765 76.0631 471.067 74.4363L476.818 42.5649L487.178 42.606ZM560.069 84.7057L539.423 84.6238L534.278 94.4454L523.4 94.4022L551.355 42.7868L563.417 42.8347L572.61 94.5976L561.658 94.5541L560.069 84.7057ZM558.769 76.6345L555.156 54.716L543.673 76.5746L558.769 76.6345ZM598.824 86.7836L615.844 86.8512L614.406 94.7636L586.952 94.6546L596.333 43.0394L606.693 43.0805L598.824 86.7836Z" fill="#3965FF"/>
</g>
<g style="mix-blend-mode:color-dodge" filter="url(#filter1_d_6_30)">
<path d="M90.4699 44.0309L81.1629 95.6464L70.7289 95.6049L76.7817 62.1807L56.9651 95.5503L49.0471 95.5189L41.2623 61.9657L35.2092 95.4639L24.7753 95.4225L34.1563 43.8073L45.9222 43.854L55.464 82.2242L78.704 43.9842L90.4699 44.0309ZM118.324 44.1415L112.574 76.0129C112.371 77.3935 112.268 78.3551 112.266 78.8977C112.256 81.463 113.013 83.4394 114.537 84.8268C116.061 86.1649 118.229 86.8395 121.041 86.8506C124.395 86.864 127.137 85.9622 129.266 84.1453C131.444 82.2792 132.86 79.5962 133.516 76.0961L139.266 44.2247L149.7 44.2661L143.949 76.1375C143.143 80.5743 141.524 84.3173 139.095 87.3663C136.666 90.366 133.721 92.6237 130.262 94.1393C126.852 95.6058 123.174 96.3312 119.227 96.3155C113.998 96.2947 109.761 94.9212 106.515 92.195C103.32 89.469 101.732 85.5653 101.752 80.484C101.757 79.1027 101.911 77.5986 102.214 75.9718L107.964 44.1004L118.324 44.1415ZM169.6 88.0794L186.62 88.147L185.182 96.0594L157.729 95.9504L167.11 44.3352L177.469 44.3763L169.6 88.0794ZM243.624 44.639L242.112 52.7731L228.422 52.7187L220.553 96.1998L210.119 96.1584L217.988 52.6773L204.224 52.6226L205.736 44.4886L243.624 44.639ZM268.943 44.7395L259.636 96.355L249.202 96.3136L258.583 44.6984L268.943 44.7395ZM289.068 88.5538L306.088 88.6214L304.651 96.5337L277.197 96.4247L286.578 44.8096L296.938 44.8507L289.068 88.5538ZM338.303 45.0149L328.996 96.6304L318.562 96.589L327.943 44.9738L338.303 45.0149ZM390.809 96.8758L380.375 96.8344L363.422 61.3208L356.991 96.7415L346.557 96.7001L355.938 45.0109L366.298 45.0521L383.325 80.64L389.756 45.1452L400.116 45.1864L390.809 96.8758ZM410.622 71.0543C411.53 65.9765 413.496 61.4456 416.522 57.4616C419.547 53.4282 423.259 50.3103 427.659 48.1077C432.058 45.8559 436.725 44.7397 441.658 44.7593C447.479 44.7824 452.259 46.2321 455.997 49.1083C459.784 51.9353 462.063 55.9157 462.832 61.0495L450.918 61.0022C450.137 58.8284 448.812 57.1705 446.941 56.0284C445.071 54.8863 442.755 54.3097 439.992 54.2988C436.934 54.2866 434.094 54.966 431.474 56.3369C428.854 57.7079 426.651 59.6725 424.865 62.2308C423.078 64.789 421.883 67.7443 421.277 71.0966C421.026 72.2796 420.897 73.6358 420.891 75.1651C420.875 79.2104 422.047 82.3971 424.405 84.7251C426.814 87.004 430.114 88.1518 434.308 88.1685C438.205 88.1839 441.613 87.1368 444.532 85.027C447.501 82.9175 449.708 79.9909 451.153 76.2472L433.393 76.1767L434.756 68.3381L462.728 68.4491L461.064 77.4706C459.718 81.0666 457.633 84.3884 454.809 87.4358C451.985 90.4833 448.62 92.9367 444.716 94.7958C440.811 96.6057 436.639 97.5018 432.199 97.4842C427.808 97.4667 423.939 96.5634 420.591 94.774C417.293 92.9849 414.713 90.508 412.851 87.3433C411.038 84.1294 410.14 80.4258 410.157 76.2325C410.164 74.5551 410.318 72.8291 410.622 71.0543ZM492.166 45.6258L486.415 77.4973C486.212 78.8778 486.11 79.8394 486.108 80.3821C486.098 82.9474 486.854 84.9237 488.378 86.3111C489.902 87.6492 492.07 88.3238 494.882 88.335C498.237 88.3483 500.979 87.4465 503.107 85.6296C505.285 83.7636 506.702 81.0805 507.357 77.5804L513.108 45.709L523.542 45.7504L517.791 77.6218C516.984 82.0587 515.366 85.8016 512.936 88.8506C510.507 91.8504 507.563 94.108 504.103 95.6236C500.694 97.0901 497.015 97.8155 493.069 97.7998C487.839 97.7791 483.602 96.4056 480.357 93.6793C477.161 90.9533 475.573 87.0496 475.593 81.9683C475.599 80.587 475.753 79.0829 476.055 77.4561L481.806 45.5847L492.166 45.6258ZM565.057 87.7256L544.411 87.6436L539.266 97.4653L528.388 97.4221L556.343 45.8066L568.405 45.8545L577.598 97.6175L566.646 97.574L565.057 87.7256ZM563.757 79.6544L560.144 57.7358L548.661 79.5944L563.757 79.6544ZM603.812 89.8035L620.832 89.871L619.394 97.7834L591.94 97.6744L601.321 46.0592L611.681 46.1004L603.812 89.8035Z" fill="#EDFF1F"/>
</g>
<g style="mix-blend-mode:color-dodge" filter="url(#filter2_d_6_30)">
<path d="M88.458 47.023L79.151 98.6384L68.7171 98.597L74.7699 65.1727L54.9532 98.5423L47.0353 98.5109L39.2504 64.9577L33.1974 98.456L22.7635 98.4145L32.1445 46.7994L43.9104 46.8461L53.4521 85.2163L76.6921 46.9762L88.458 47.023ZM116.312 47.1335L110.562 79.005C110.359 80.3855 110.257 81.3471 110.254 81.8898C110.244 84.4551 111.001 86.4314 112.525 87.8188C114.049 89.1569 116.217 89.8315 119.029 89.8427C122.384 89.856 125.125 88.9542 127.254 87.1373C129.432 85.2713 130.848 82.5882 131.504 79.0881L137.254 47.2167L147.688 47.2581L141.938 79.1295C141.131 83.5664 139.512 87.3093 137.083 90.3584C134.654 93.3581 131.709 95.6157 128.25 97.1313C124.84 98.5978 121.162 99.3232 117.215 99.3075C111.986 99.2868 107.749 97.9133 104.504 95.187C101.308 92.461 99.7199 88.5573 99.74 83.476C99.7455 82.0947 99.8995 80.5906 100.202 78.9638L105.953 47.0924L116.312 47.1335ZM167.588 91.0715L184.608 91.1391L183.171 99.0514L155.717 98.9424L165.098 47.3272L175.458 47.3684L167.588 91.0715ZM241.612 47.631L240.1 55.7651L226.41 55.7108L218.541 99.1919L208.107 99.1504L215.976 55.6693L202.212 55.6147L203.724 47.4806L241.612 47.631ZM266.931 47.7316L257.624 99.347L247.19 99.3056L256.571 47.6904L266.931 47.7316ZM287.057 91.5458L304.077 91.6134L302.639 99.5258L275.185 99.4168L284.566 47.8016L294.926 47.8427L287.057 91.5458ZM336.291 48.007L326.984 99.6224L316.55 99.581L325.931 47.9658L336.291 48.007ZM388.797 99.8678L378.363 99.8264L361.41 64.3128L354.979 99.7336L344.545 99.6921L353.927 48.003L364.287 48.0441L381.313 83.632L387.744 48.1373L398.104 48.1784L388.797 99.8678ZM408.61 74.0463C409.518 68.9685 411.485 64.4376 414.51 60.4536C417.535 56.4203 421.247 53.3023 425.647 51.0998C430.047 48.8479 434.713 47.7317 439.646 47.7513C445.468 47.7744 450.247 49.2241 453.985 52.1003C457.773 54.9274 460.051 58.9078 460.82 64.0415L448.906 63.9942C448.125 61.8204 446.8 60.1625 444.93 59.0204C443.059 57.8783 440.743 57.3018 437.98 57.2908C434.922 57.2786 432.082 57.958 429.462 59.329C426.842 60.6999 424.639 62.6645 422.853 65.2228C421.067 67.781 419.871 70.7363 419.266 74.0886C419.014 75.2716 418.886 76.6278 418.879 78.1571C418.863 82.2024 420.035 85.3891 422.394 87.7171C424.802 89.9961 428.103 91.1438 432.296 91.1605C436.193 91.176 439.601 90.1288 442.52 88.0191C445.489 85.9095 447.696 82.9829 449.141 79.2393L431.382 79.1688L432.745 71.3301L460.716 71.4412L459.053 80.4626C457.706 84.0587 455.621 87.3804 452.797 90.4279C449.973 93.4754 446.608 95.9287 442.704 97.7879C438.799 99.5977 434.627 100.494 430.187 100.476C425.796 100.459 421.927 99.5554 418.58 97.7661C415.281 95.977 412.701 93.5 410.839 90.3353C409.026 87.1214 408.128 83.4178 408.145 79.2245C408.152 77.5472 408.307 75.8211 408.61 74.0463ZM490.154 48.6179L484.403 80.4893C484.201 81.8698 484.098 82.8314 484.096 83.3741C484.086 85.9394 484.843 87.9158 486.366 89.3032C487.891 90.6412 490.059 91.3158 492.871 91.327C496.225 91.3403 498.967 90.4385 501.095 88.6216C503.273 86.7556 504.69 84.0725 505.345 80.5724L511.096 48.701L521.53 48.7424L515.779 80.6139C514.972 85.0507 513.354 88.7936 510.925 91.8427C508.495 94.8424 505.551 97.1001 502.092 98.6157C498.682 100.082 495.004 100.808 491.057 100.792C485.828 100.771 481.59 99.3976 478.345 96.6714C475.149 93.9453 473.561 90.0417 473.582 84.9604C473.587 83.579 473.741 82.075 474.044 80.4482L479.794 48.5767L490.154 48.6179ZM563.045 90.7176L542.399 90.6356L537.254 100.457L526.376 100.414L554.331 48.7987L566.393 48.8466L575.586 100.609L564.634 100.566L563.045 90.7176ZM561.745 82.6464L558.132 60.7279L546.649 82.5865L561.745 82.6464ZM601.8 92.7955L618.82 92.8631L617.382 100.775L589.929 100.666L599.31 49.0513L609.669 49.0924L601.8 92.7955Z" fill="#5AFFBA"/>
</g>
<g style="mix-blend-mode:color-dodge" opacity="0.9">
<g style="mix-blend-mode:color-dodge">
<path d="M86.4739 43.015L87.458 43.1925L87.6695 42.0198L86.4779 42.0151L86.4739 43.015ZM77.1669 94.6305L77.1629 95.6305L78.0021 95.6338L78.151 94.808L77.1669 94.6305ZM66.733 94.5891L65.749 94.4109L65.5365 95.5843L66.729 95.5891L66.733 94.5891ZM72.7857 61.1648L73.7697 61.343L71.9259 60.6542L72.7857 61.1648ZM52.9691 94.5344L52.9651 95.5344L53.5369 95.5367L53.8289 95.045L52.9691 94.5344ZM45.0511 94.503L44.077 94.729L44.2559 95.4998L45.0472 95.503L45.0511 94.503ZM37.2663 60.9498L38.2404 60.7238L36.2822 60.772L37.2663 60.9498ZM31.2133 94.448L31.2093 95.448L32.0482 95.4514L32.1973 94.6259L31.2133 94.448ZM20.7793 94.4066L19.7955 94.2278L19.5821 95.4019L20.7754 95.4066L20.7793 94.4066ZM30.1603 42.7915L30.1643 41.7915L29.3263 41.7881L29.1765 42.6126L30.1603 42.7915ZM41.9263 42.8382L42.8967 42.5968L42.7088 41.8413L41.9302 41.8382L41.9263 42.8382ZM51.468 81.2084L50.4975 81.4497L51.0765 83.778L52.3225 81.7277L51.468 81.2084ZM74.708 42.9683L74.712 41.9683L74.1469 41.9661L73.8534 42.449L74.708 42.9683ZM85.4898 42.8376L76.1828 94.4531L78.151 94.808L87.458 43.1925L85.4898 42.8376ZM77.1709 93.6305L66.7369 93.5891L66.729 95.5891L77.1629 95.6305L77.1709 93.6305ZM67.717 94.7673L73.7697 61.343L71.8017 60.9867L65.749 94.4109L67.717 94.7673ZM71.9259 60.6542L52.1093 94.0238L53.8289 95.045L73.6456 61.6754L71.9259 60.6542ZM52.9731 93.5344L45.0551 93.503L45.0472 95.503L52.9651 95.5344L52.9731 93.5344ZM46.0253 94.277L38.2404 60.7238L36.2922 61.1758L44.077 94.729L46.0253 94.277ZM36.2822 60.772L30.2292 94.2702L32.1973 94.6259L38.2504 61.1276L36.2822 60.772ZM31.2172 93.4481L20.7833 93.4066L20.7754 95.4066L31.2093 95.448L31.2172 93.4481ZM21.7632 94.5854L31.1442 42.9703L29.1765 42.6126L19.7955 94.2278L21.7632 94.5854ZM30.1564 43.7914L41.9223 43.8382L41.9302 41.8382L30.1643 41.7915L30.1564 43.7914ZM40.9558 43.0795L50.4975 81.4497L52.4384 80.967L42.8967 42.5968L40.9558 43.0795ZM52.3225 81.7277L75.5626 43.4877L73.8534 42.449L50.6134 80.689L52.3225 81.7277ZM74.704 43.9683L86.4699 44.015L86.4779 42.0151L74.712 41.9683L74.704 43.9683ZM114.328 43.1256L115.312 43.3032L115.524 42.1304L114.332 42.1257L114.328 43.1256ZM108.578 74.9971L107.594 74.8195L107.591 74.8356L107.588 74.8517L108.578 74.9971ZM110.541 83.8109L109.868 84.5504L109.874 84.5564L109.881 84.5624L110.541 83.8109ZM125.27 83.1294L125.919 83.89L125.92 83.8888L125.27 83.1294ZM129.52 75.0802L130.503 75.2642L130.504 75.2578L129.52 75.0802ZM135.27 43.2088L135.274 42.2088L134.435 42.2055L134.286 43.0312L135.27 43.2088ZM145.704 43.2502L146.688 43.4278L146.9 42.255L145.708 42.2502L145.704 43.2502ZM139.953 75.1216L140.937 75.3006L140.938 75.2992L139.953 75.1216ZM135.099 86.3505L135.876 86.9798L135.881 86.9736L135.099 86.3505ZM126.266 93.1234L126.661 94.0421L126.667 94.0394L126.266 93.1234ZM102.519 91.1791L101.87 91.94L101.876 91.9448L102.519 91.1791ZM98.2178 74.9559L99.201 75.1387L99.2019 75.1335L98.2178 74.9559ZM103.968 43.0845L103.972 42.0845L103.133 42.0812L102.984 42.9069L103.968 43.0845ZM113.344 42.9481L107.594 74.8195L109.562 75.1746L115.312 43.3032L113.344 42.9481ZM107.588 74.8517C107.386 76.2286 107.273 77.2553 107.27 77.8779L109.27 77.8858C109.272 77.4231 109.364 76.5266 109.567 75.1424L107.588 74.8517ZM107.27 77.8779C107.259 80.6516 108.085 82.9276 109.868 84.5504L111.214 83.0715C109.949 81.9195 109.261 80.2427 109.27 77.8858L107.27 77.8779ZM109.881 84.5624C111.646 86.112 114.081 86.823 117.041 86.8348L117.049 84.8348C114.385 84.8242 112.484 84.186 111.201 83.0595L109.881 84.5624ZM117.041 86.8348C120.585 86.8488 123.574 85.8918 125.919 83.89L124.62 82.3688C122.708 84.0008 120.214 84.8473 117.049 84.8348L117.041 86.8348ZM125.92 83.8888C128.31 81.8415 129.816 78.9328 130.503 75.2642L128.537 74.8962C127.913 78.2278 126.585 80.6853 124.619 82.37L125.92 83.8888ZM130.504 75.2578L136.254 43.3864L134.286 43.0312L128.535 74.9026L130.504 75.2578ZM135.266 44.2088L145.7 44.2502L145.708 42.2502L135.274 42.2088L135.266 44.2088ZM144.72 43.0727L138.969 74.9441L140.938 75.2992L146.688 43.4278L144.72 43.0727ZM138.97 74.9427C138.188 79.2427 136.628 82.8263 134.317 85.7273L135.881 86.9736C138.428 83.7765 140.106 79.8743 140.937 75.3006L138.97 74.9427ZM134.322 85.7211C131.991 88.5995 129.174 90.7575 125.865 92.2075L126.667 94.0394C130.276 92.4582 133.348 90.1009 135.876 86.9798L134.322 85.7211ZM125.871 92.2048C122.595 93.6137 119.053 94.3148 115.235 94.2996L115.227 96.2996C119.302 96.3158 123.117 95.5661 126.661 94.0421L125.871 92.2048ZM115.235 94.2996C110.183 94.2796 106.19 92.9565 103.163 90.4135L101.876 91.9448C105.339 94.8543 109.82 96.2782 115.227 96.2996L115.235 94.2996ZM103.168 90.4183C100.243 87.9231 98.7366 84.3269 98.7559 79.4721L96.7559 79.4642C96.7348 84.7719 98.404 88.9831 101.87 91.94L103.168 90.4183ZM98.7559 79.4721C98.7611 78.1611 98.9074 76.7177 99.201 75.1387L97.2347 74.7731C96.9233 76.4478 96.7617 78.0125 96.7559 79.4642L98.7559 79.4721ZM99.2019 75.1335L104.953 43.2621L102.984 42.9069L97.2337 74.7784L99.2019 75.1335ZM103.964 44.0845L114.324 44.1256L114.332 42.1257L103.972 42.0845L103.964 44.0845ZM165.604 87.0636L164.62 86.8864L164.409 88.0588L165.6 88.0636L165.604 87.0636ZM182.624 87.1312L183.608 87.3099L183.821 86.1359L182.628 86.1312L182.624 87.1312ZM181.186 95.0435L181.182 96.0435L182.02 96.0468L182.17 95.2223L181.186 95.0435ZM153.733 94.9345L152.749 94.7557L152.535 95.9298L153.729 95.9345L153.733 94.9345ZM163.114 43.3193L163.118 42.3194L162.28 42.316L162.13 43.1405L163.114 43.3193ZM173.474 43.3605L174.458 43.5377L174.669 42.3652L173.477 42.3605L173.474 43.3605ZM165.6 88.0636L182.62 88.1311L182.628 86.1312L165.608 86.0636L165.6 88.0636ZM181.64 86.9524L180.202 94.8648L182.17 95.2223L183.608 87.3099L181.64 86.9524ZM181.19 94.0435L153.737 93.9345L153.729 95.9345L181.182 96.0435L181.19 94.0435ZM154.716 95.1133L164.097 43.4982L162.13 43.1405L152.749 94.7557L154.716 95.1133ZM163.11 44.3193L173.47 44.3605L173.477 42.3605L163.118 42.3194L163.11 44.3193ZM172.489 43.1833L164.62 86.8864L166.588 87.2408L174.458 43.5377L172.489 43.1833ZM239.628 43.6231L240.611 43.8059L240.83 42.6279L239.632 42.6231L239.628 43.6231ZM238.116 51.7572L238.112 52.7572L238.946 52.7605L239.099 51.94L238.116 51.7572ZM224.426 51.7028L224.43 50.7029L223.591 50.6995L223.442 51.5248L224.426 51.7028ZM216.557 95.1839L216.553 96.1839L217.392 96.1873L217.541 95.362L216.557 95.1839ZM206.123 95.1425L205.139 94.9644L204.927 96.1378L206.119 96.1425L206.123 95.1425ZM213.992 51.6614L214.976 51.8395L215.188 50.6662L213.996 50.6614L213.992 51.6614ZM200.228 51.6068L199.245 51.424L199.026 52.602L200.224 52.6068L200.228 51.6068ZM201.74 43.4727L201.744 42.4727L200.91 42.4694L200.757 43.2899L201.74 43.4727ZM238.645 43.4403L237.132 51.5744L239.099 51.94L240.611 43.8059L238.645 43.4403ZM238.12 50.7572L224.43 50.7029L224.422 52.7028L238.112 52.7572L238.12 50.7572ZM223.442 51.5248L215.573 95.0059L217.541 95.362L225.41 51.8809L223.442 51.5248ZM216.561 94.184L206.127 94.1425L206.119 96.1425L216.553 96.1839L216.561 94.184ZM207.107 95.3206L214.976 51.8395L213.008 51.4833L205.139 94.9644L207.107 95.3206ZM213.996 50.6614L200.232 50.6068L200.224 52.6068L213.988 52.6614L213.996 50.6614ZM201.211 51.7896L202.723 43.6555L200.757 43.2899L199.245 51.424L201.211 51.7896ZM201.736 44.4727L239.624 44.6231L239.632 42.6231L201.744 42.4727L201.736 44.4727ZM264.947 43.7237L265.931 43.9011L266.142 42.7284L264.951 42.7237L264.947 43.7237ZM255.64 95.3391L255.636 96.3391L256.475 96.3424L256.624 95.5166L255.64 95.3391ZM245.206 95.2977L244.222 95.1189L244.008 96.293L245.202 96.2977L245.206 95.2977ZM254.587 43.6825L254.591 42.6825L253.753 42.6792L253.603 43.5037L254.587 43.6825ZM263.963 43.5462L254.655 95.1617L256.624 95.5166L265.931 43.9011L263.963 43.5462ZM255.644 94.3391L245.21 94.2977L245.202 96.2977L255.636 96.3391L255.644 94.3391ZM246.19 95.4765L255.571 43.8614L253.603 43.5037L244.222 95.1189L246.19 95.4765ZM254.583 44.6825L264.943 44.7237L264.951 42.7237L254.591 42.6825L254.583 44.6825ZM285.073 87.5379L284.088 87.3607L283.877 88.5332L285.069 88.5379L285.073 87.5379ZM302.092 87.6055L303.076 87.7842L303.29 86.6102L302.096 86.6055L302.092 87.6055ZM300.655 95.5179L300.651 96.5178L301.489 96.5212L301.639 95.6966L300.655 95.5179ZM273.201 95.4089L272.217 95.23L272.004 96.4041L273.197 96.4088L273.201 95.4089ZM282.582 43.7937L282.586 42.7937L281.748 42.7904L281.598 43.6149L282.582 43.7937ZM292.942 43.8348L293.926 44.012L294.137 42.8396L292.946 42.8348L292.942 43.8348ZM285.069 88.5379L302.088 88.6055L302.096 86.6055L285.076 86.5379L285.069 88.5379ZM301.108 87.4268L299.671 95.3391L301.639 95.6966L303.076 87.7842L301.108 87.4268ZM300.659 94.5179L273.205 94.4089L273.197 96.4088L300.651 96.5178L300.659 94.5179ZM274.185 95.5877L283.566 43.9725L281.598 43.6149L272.217 95.23L274.185 95.5877ZM282.578 44.7937L292.938 44.8348L292.946 42.8348L282.586 42.7937L282.578 44.7937ZM291.958 43.6576L284.088 87.3607L286.057 87.7151L293.926 44.012L291.958 43.6576ZM334.307 43.9991L335.291 44.1765L335.502 43.0038L334.311 42.9991L334.307 43.9991ZM325 95.6145L324.996 96.6145L325.835 96.6178L325.984 95.792L325 95.6145ZM314.566 95.5731L313.582 95.3943L313.368 96.5683L314.562 96.5731L314.566 95.5731ZM323.947 43.9579L323.951 42.9579L323.113 42.9546L322.963 43.7791L323.947 43.9579ZM333.322 43.8216L324.015 95.4371L325.984 95.792L335.291 44.1765L333.322 43.8216ZM325.004 94.6145L314.57 94.5731L314.562 96.5731L324.996 96.6145L325.004 94.6145ZM315.55 95.7519L324.931 44.1367L322.963 43.7791L313.582 95.3943L315.55 95.7519ZM323.943 44.9579L334.303 44.9991L334.311 42.9991L323.951 42.9579L323.943 44.9579ZM386.813 95.8599L386.809 96.8599L387.648 96.8633L387.797 96.0372L386.813 95.8599ZM376.379 95.8185L375.476 96.2493L375.747 96.816L376.375 96.8185L376.379 95.8185ZM359.426 60.3049L360.328 59.8741L358.995 57.0808L358.442 60.1263L359.426 60.3049ZM352.995 95.7257L352.991 96.7257L353.829 96.729L353.979 95.9043L352.995 95.7257ZM342.561 95.6842L341.577 95.5057L341.364 96.6795L342.557 96.6842L342.561 95.6842ZM351.942 43.9951L351.946 42.9951L351.108 42.9918L350.959 43.8165L351.942 43.9951ZM362.302 44.0362L363.204 43.6046L362.934 43.0387L362.306 43.0362L362.302 44.0362ZM379.329 79.6241L378.427 80.0557L379.762 82.8454L380.313 79.8024L379.329 79.6241ZM385.76 44.1294L385.764 43.1294L384.926 43.126L384.776 43.9511L385.76 44.1294ZM396.12 44.1705L397.104 44.3477L397.315 43.1752L396.124 43.1705L396.12 44.1705ZM386.817 94.86L376.383 94.8185L376.375 96.8185L386.809 96.8599L386.817 94.86ZM377.281 95.3877L360.328 59.8741L358.523 60.7357L375.476 96.2493L377.281 95.3877ZM358.442 60.1263L352.011 95.547L353.979 95.9043L360.41 60.4836L358.442 60.1263ZM352.999 94.7257L342.565 94.6843L342.557 96.6842L352.991 96.7257L352.999 94.7257ZM343.545 95.8628L352.926 44.1737L350.959 43.8165L341.577 95.5057L343.545 95.8628ZM351.939 44.9951L362.298 45.0362L362.306 43.0362L351.946 42.9951L351.939 44.9951ZM361.4 44.4678L378.427 80.0557L380.231 79.1925L363.204 43.6046L361.4 44.4678ZM380.313 79.8024L386.744 44.3076L384.776 43.9511L378.345 79.4458L380.313 79.8024ZM385.756 45.1293L396.116 45.1705L396.124 43.1705L385.764 43.1294L385.756 45.1293ZM395.136 43.9933L385.829 95.6827L387.797 96.0372L397.104 44.3477L395.136 43.9933ZM406.626 70.0384L405.641 69.8623L405.64 69.8701L406.626 70.0384ZM412.526 56.4457L413.322 57.0505L413.326 57.0458L412.526 56.4457ZM423.663 47.0919L424.11 47.9861L424.118 47.982L423.663 47.0919ZM452.001 48.0924L451.391 48.8849L451.397 48.8894L451.403 48.8938L452.001 48.0924ZM458.836 60.0336L458.832 61.0336L459.997 61.0382L459.825 59.8855L458.836 60.0336ZM446.922 59.9863L445.981 60.3243L446.217 60.9835L446.918 60.9863L446.922 59.9863ZM420.869 61.2149L420.049 60.6424L420.049 60.6424L420.869 61.2149ZM417.281 70.0807L418.26 70.2886L418.263 70.2735L418.266 70.2584L417.281 70.0807ZM420.409 83.7092L419.707 84.421L419.714 84.4284L419.722 84.4356L420.409 83.7092ZM440.536 84.0112L439.957 83.196L439.951 83.2007L440.536 84.0112ZM447.157 75.2314L448.09 75.5916L448.613 74.2371L447.161 74.2314L447.157 75.2314ZM429.397 75.1609L428.412 74.9895L428.209 76.1561L429.393 76.1608L429.397 75.1609ZM430.761 67.3222L430.764 66.3222L429.92 66.3189L429.775 67.1509L430.761 67.3222ZM458.732 67.4333L459.716 67.6146L459.933 66.438L458.736 66.4333L458.732 67.4333ZM457.068 76.4547L458.005 76.8054L458.036 76.7228L458.052 76.6361L457.068 76.4547ZM450.813 86.42L451.546 87.0997L451.546 87.0997L450.813 86.42ZM440.72 93.78L441.14 94.6873L441.149 94.6828L440.72 93.78ZM416.595 93.7582L416.119 94.6372L416.124 94.6401L416.595 93.7582ZM408.855 86.3274L407.984 86.8186L407.988 86.8266L407.993 86.8345L408.855 86.3274ZM407.61 70.2145C408.491 65.2874 410.396 60.9045 413.322 57.0505L411.729 55.841C408.605 59.955 406.576 64.6338 405.641 69.8623L407.61 70.2145ZM413.326 57.0458C416.26 53.1333 419.853 50.1174 424.11 47.9861L423.215 46.1977C418.674 48.4714 414.842 51.6915 411.726 55.8457L413.326 57.0458ZM424.118 47.982C428.376 45.8028 432.885 44.7245 437.658 44.7434L437.666 42.7434C432.573 42.7232 427.749 43.8772 423.207 46.2017L424.118 47.982ZM437.658 44.7434C443.313 44.7659 447.864 46.1712 451.391 48.8849L452.611 47.2999C448.662 44.2612 443.654 42.7672 437.666 42.7434L437.658 44.7434ZM451.403 48.8938C454.957 51.5469 457.113 55.2806 457.847 60.1818L459.825 59.8855C459.021 54.5191 456.62 50.292 452.599 47.291L451.403 48.8938ZM458.84 59.0336L446.926 58.9863L446.918 60.9863L458.832 61.0336L458.84 59.0336ZM447.863 59.6483C447.01 57.2723 445.543 55.4268 443.467 54.1591L442.424 55.8659C444.089 56.8824 445.273 58.3527 445.981 60.3243L447.863 59.6483ZM443.467 54.1591C441.405 52.8999 438.898 52.2944 436 52.2829L435.992 54.2829C438.62 54.2933 440.746 54.8408 442.424 55.8659L443.467 54.1591ZM436 52.2829C432.785 52.2701 429.784 52.986 427.015 54.435L427.942 56.2071C430.413 54.9143 433.091 54.2714 435.992 54.2829L436 52.2829ZM427.015 54.435C424.244 55.8845 421.922 57.96 420.049 60.6424L421.689 61.7874C423.388 59.3532 425.472 57.4995 427.942 56.2071L427.015 54.435ZM420.049 60.6424C418.173 63.3294 416.926 66.422 416.297 69.903L418.266 70.2584C418.848 67.0348 419.992 64.2169 421.689 61.7874L420.049 60.6424ZM416.303 69.8729C416.035 71.1378 415.902 72.5645 415.895 74.1452L417.895 74.1532C417.901 72.6753 418.026 71.3897 418.26 70.2886L416.303 69.8729ZM415.895 74.1452C415.878 78.3961 417.116 81.8638 419.707 84.421L421.112 82.9975C418.985 80.8986 417.88 77.993 417.895 74.1532L415.895 74.1452ZM419.722 84.4356C422.36 86.9322 425.93 88.1352 430.308 88.1526L430.316 86.1526C426.307 86.1367 423.275 85.0441 421.097 82.9829L419.722 84.4356ZM430.308 88.1526C434.398 88.1688 438.017 87.0657 441.122 84.8216L439.951 83.2007C437.217 85.1761 434.02 86.1673 430.316 86.1526L430.308 88.1526ZM441.116 84.8263C444.26 82.5916 446.581 79.4988 448.09 75.5916L446.224 74.8712C444.842 78.4512 442.749 81.2116 439.957 83.196L441.116 84.8263ZM447.161 74.2314L429.401 74.1609L429.393 76.1608L447.153 76.2314L447.161 74.2314ZM430.383 75.3322L431.746 67.4935L429.775 67.1509L428.412 74.9895L430.383 75.3322ZM430.757 68.3222L458.728 68.4333L458.736 66.4333L430.764 66.3222L430.757 68.3222ZM457.749 67.2519L456.085 76.2734L458.052 76.6361L459.716 67.6146L457.749 67.2519ZM456.132 76.1041C454.835 79.5686 452.822 82.7803 450.079 85.7403L451.546 87.0997C454.452 83.9647 456.609 80.5329 458.005 76.8054L456.132 76.1041ZM450.079 85.7403C447.345 88.691 444.085 91.0701 440.29 92.8771L441.149 94.6828C445.164 92.7714 448.633 90.2439 451.546 87.0997L450.079 85.7403ZM440.299 92.8727C436.532 94.6189 432.505 95.4854 428.207 95.4683L428.199 97.4683C432.781 97.4865 437.098 96.5607 441.14 94.6872L440.299 92.8727ZM428.207 95.4683C423.954 95.4514 420.25 94.5774 417.067 92.8763L416.124 94.6401C419.637 96.5176 423.671 97.4503 428.199 97.4683L428.207 95.4683ZM417.072 92.8792C413.93 91.1747 411.485 88.8248 409.717 85.8203L407.993 86.8345C409.949 90.1595 412.664 92.7634 416.119 94.6372L417.072 92.8792ZM409.726 85.8361C408.01 82.793 407.145 79.2645 407.161 75.2206L405.161 75.2126C405.144 79.5553 406.075 83.434 407.984 86.8186L409.726 85.8361ZM407.161 75.2206C407.167 73.6022 407.317 71.9312 407.611 70.2067L405.64 69.8701C405.328 71.6953 405.168 73.4764 405.161 75.2126L407.161 75.2206ZM488.17 44.61L489.154 44.7875L489.366 43.6147L488.174 43.61L488.17 44.61ZM482.419 76.4814L481.435 76.3038L481.432 76.3199L481.43 76.336L482.419 76.4814ZM484.382 85.2953L483.709 86.0347L483.716 86.0408L483.723 86.0467L484.382 85.2953ZM499.111 84.6137L499.76 85.3743L499.762 85.3731L499.111 84.6137ZM503.361 76.5645L504.344 76.7485L504.345 76.7421L503.361 76.5645ZM509.112 44.6931L509.116 43.6931L508.277 43.6898L508.128 44.5156L509.112 44.6931ZM519.546 44.7345L520.53 44.9121L520.741 43.7393L519.55 43.7346L519.546 44.7345ZM513.795 76.606L514.779 76.7849L514.779 76.7835L513.795 76.606ZM508.94 87.8348L509.718 88.4641L509.723 88.4579L508.94 87.8348ZM500.108 94.6078L500.503 95.5264L500.509 95.5237L500.108 94.6078ZM476.361 92.6635L475.712 93.4243L475.718 93.4291L476.361 92.6635ZM472.059 76.4403L473.043 76.623L473.044 76.6178L472.059 76.4403ZM477.81 44.5688L477.814 43.5688L476.975 43.5655L476.826 44.3913L477.81 44.5688ZM487.186 44.4324L481.435 76.3038L483.403 76.659L489.154 44.7875L487.186 44.4324ZM481.43 76.336C481.228 77.713 481.114 78.7397 481.112 79.3622L483.112 79.3702C483.114 78.9074 483.205 78.0109 483.409 76.6267L481.43 76.336ZM481.112 79.3622C481.101 82.1359 481.927 84.4119 483.709 86.0347L485.056 84.5558C483.79 83.4038 483.103 81.7271 483.112 79.3702L481.112 79.3622ZM483.723 86.0467C485.488 87.5963 487.922 88.3073 490.882 88.3191L490.89 86.3191C488.227 86.3085 486.325 85.6703 485.042 84.5438L483.723 86.0467ZM490.882 88.3191C494.427 88.3332 497.415 87.3762 499.76 85.3743L498.462 83.8531C496.55 85.4851 494.055 86.3317 490.89 86.3191L490.882 88.3191ZM499.762 85.3731C502.152 83.3258 503.657 80.4172 504.344 76.7485L502.378 76.3805C501.755 79.7121 500.427 82.1696 498.461 83.8543L499.762 85.3731ZM504.345 76.7421L510.096 44.8707L508.128 44.5156L502.377 76.387L504.345 76.7421ZM509.108 45.6931L519.542 45.7345L519.55 43.7346L509.116 43.6931L509.108 45.6931ZM518.562 44.557L512.811 76.4284L514.779 76.7835L520.53 44.9121L518.562 44.557ZM512.811 76.427C512.029 80.727 510.47 84.3107 508.158 87.2116L509.723 88.4579C512.27 85.2608 513.947 81.3586 514.779 76.7849L512.811 76.427ZM508.163 87.2054C505.832 90.0838 503.016 92.2418 499.706 93.6918L500.509 95.5237C504.118 93.9425 507.19 91.5852 509.718 88.4641L508.163 87.2054ZM499.712 93.6891C496.436 95.098 492.895 95.7991 489.077 95.784L489.069 97.784C493.144 97.8001 496.959 97.0505 500.503 95.5264L499.712 93.6891ZM489.077 95.784C484.025 95.7639 480.031 94.4408 477.004 91.8978L475.718 93.4291C479.181 96.3386 483.662 97.7625 489.069 97.784L489.077 95.784ZM477.01 91.9026C474.085 89.4074 472.578 85.8113 472.597 80.9564L470.598 80.9485C470.576 86.2562 472.246 90.4674 475.712 93.4243L477.01 91.9026ZM472.597 80.9564C472.603 79.6455 472.749 78.202 473.043 76.623L471.076 76.2575C470.765 77.9321 470.603 79.4968 470.598 80.9485L472.597 80.9564ZM473.044 76.6178L478.794 44.7464L476.826 44.3913L471.075 76.2627L473.044 76.6178ZM477.806 45.5688L488.166 45.61L488.174 43.61L477.814 43.5688L477.806 45.5688ZM561.061 86.7097L562.048 86.5504L561.913 85.7131L561.065 85.7097L561.061 86.7097ZM540.415 86.6277L540.419 85.6277L539.811 85.6253L539.529 86.1637L540.415 86.6277ZM535.27 96.4494L535.266 97.4494L535.874 97.4518L536.156 96.9134L535.27 96.4494ZM524.392 96.4062L523.513 95.93L522.717 97.3996L524.388 97.4062L524.392 96.4062ZM552.347 44.7908L552.351 43.7908L551.753 43.7884L551.468 44.3145L552.347 44.7908ZM564.409 44.8387L565.394 44.6638L565.248 43.842L564.413 43.8387L564.409 44.8387ZM573.602 96.6016L573.598 97.6016L574.796 97.6063L574.586 96.4267L573.602 96.6016ZM562.65 96.5581L561.663 96.7174L561.798 97.5547L562.646 97.5581L562.65 96.5581ZM559.761 78.6385L559.757 79.6385L560.94 79.6432L560.748 78.4758L559.761 78.6385ZM556.148 56.72L557.135 56.5573L556.65 53.6148L555.263 56.2549L556.148 56.72ZM544.665 78.5785L543.78 78.1135L543.014 79.572L544.661 79.5785L544.665 78.5785ZM561.065 85.7097L540.419 85.6277L540.411 87.6277L561.057 87.7097L561.065 85.7097ZM539.529 86.1637L534.384 95.9854L536.156 96.9134L541.301 87.0918L539.529 86.1637ZM535.274 95.4494L524.396 95.4062L524.388 97.4062L535.266 97.4494L535.274 95.4494ZM525.272 96.8824L553.227 45.267L551.468 44.3145L523.513 95.93L525.272 96.8824ZM552.343 45.7908L564.405 45.8387L564.413 43.8387L552.351 43.7908L552.343 45.7908ZM563.425 45.0135L572.617 96.7764L574.586 96.4267L565.394 44.6638L563.425 45.0135ZM573.606 95.6016L562.654 95.5581L562.646 97.5581L573.598 97.6016L573.606 95.6016ZM563.637 96.3988L562.048 86.5504L560.074 86.869L561.663 96.7174L563.637 96.3988ZM560.748 78.4758L557.135 56.5573L555.161 56.8826L558.774 78.8011L560.748 78.4758ZM555.263 56.2549L543.78 78.1135L545.55 79.0436L557.033 57.185L555.263 56.2549ZM544.661 79.5785L559.757 79.6385L559.765 77.6385L544.669 77.5786L544.661 79.5785ZM599.816 88.7876L598.832 88.6104L598.62 89.7829L599.812 89.7876L599.816 88.7876ZM616.836 88.8552L617.82 89.0339L618.033 87.8599L616.84 87.8552L616.836 88.8552ZM615.398 96.7675L615.394 97.7675L616.232 97.7709L616.382 96.9463L615.398 96.7675ZM587.944 96.6585L586.961 96.4797L586.747 97.6538L587.94 97.6585L587.944 96.6585ZM597.325 45.0434L597.329 44.0434L596.491 44.04L596.342 44.8645L597.325 45.0434ZM607.685 45.0845L608.67 45.2617L608.881 44.0892L607.689 44.0845L607.685 45.0845ZM599.812 89.7876L616.832 89.8552L616.84 87.8552L599.82 87.7876L599.812 89.7876ZM615.852 88.6764L614.414 96.5888L616.382 96.9463L617.82 89.0339L615.852 88.6764ZM615.402 95.7675L587.948 95.6585L587.94 97.6585L615.394 97.7675L615.402 95.7675ZM588.928 96.8373L598.309 45.2222L596.342 44.8645L586.961 96.4797L588.928 96.8373ZM597.321 46.0434L607.681 46.0845L607.689 44.0845L597.329 44.0434L597.321 46.0434ZM606.701 44.9073L598.832 88.6104L600.8 88.9648L608.67 45.2617L606.701 44.9073Z" fill="white"/>
</g>
</g>
<g style="mix-blend-mode:lighten" opacity="0.5" filter="url(#filter3_f_6_30)">
<g style="mix-blend-mode:color-dodge">
<path d="M91.4818 41.0349L82.1748 92.6504L71.7409 92.6089L77.7937 59.1847L57.977 92.5543L50.0591 92.5229L42.2742 58.9697L36.2212 92.4679L25.7873 92.4265L35.1683 40.8113L46.9342 40.858L56.4759 79.2282L79.7159 40.9882L91.4818 41.0349ZM119.336 41.1455L113.586 73.0169C113.383 74.3975 113.28 75.3591 113.278 75.9017C113.268 78.467 114.025 80.4434 115.549 81.8308C117.073 83.1689 119.241 83.8435 122.053 83.8546C125.407 83.868 128.149 82.9662 130.278 81.1493C132.456 79.2832 133.872 76.6002 134.528 73.1001L140.278 41.2287L150.712 41.2701L144.961 73.1415C144.154 77.5783 142.536 81.3213 140.107 84.3703C137.678 87.37 134.733 89.6277 131.274 91.1433C127.864 92.6098 124.186 93.3352 120.239 93.3195C115.01 93.2987 110.773 91.9252 107.527 89.199C104.332 86.473 102.744 82.5693 102.764 77.488C102.769 76.1067 102.923 74.6026 103.226 72.9758L108.976 41.1044L119.336 41.1455ZM170.612 85.0834L187.632 85.151L186.194 93.0634L158.741 92.9544L168.122 41.3392L178.481 41.3803L170.612 85.0834ZM244.636 41.643L243.123 49.7771L229.434 49.7227L221.565 93.2038L211.131 93.1624L219 49.6813L205.236 49.6266L206.748 41.4926L244.636 41.643ZM269.955 41.7435L260.648 93.359L250.214 93.3176L259.595 41.7024L269.955 41.7435ZM290.08 85.5578L307.1 85.6254L305.663 93.5377L278.209 93.4287L287.59 41.8136L297.95 41.8547L290.08 85.5578ZM339.315 42.0189L330.008 93.6344L319.574 93.593L328.955 41.9778L339.315 42.0189ZM391.821 93.8798L381.387 93.8384L364.434 58.3248L358.003 93.7455L347.569 93.7041L356.95 42.0149L367.31 42.0561L384.337 77.644L390.768 42.1492L401.128 42.1904L391.821 93.8798ZM411.633 68.0583C412.542 62.9805 414.508 58.4496 417.533 54.4656C420.559 50.4322 424.271 47.3143 428.671 45.1117C433.07 42.8599 437.737 41.7437 442.67 41.7633C448.491 41.7864 453.271 43.2361 457.009 46.1123C460.796 48.9393 463.075 52.9197 463.844 58.0535L451.93 58.0062C451.149 55.8324 449.824 54.1745 447.953 53.0324C446.083 51.8903 443.767 51.3137 441.004 51.3028C437.946 51.2906 435.106 51.97 432.486 53.3409C429.866 54.7119 427.663 56.6765 425.877 59.2348C424.09 61.793 422.895 64.7483 422.289 68.1006C422.038 69.2836 421.909 70.6398 421.903 72.1691C421.887 76.2144 423.059 79.4011 425.417 81.7291C427.826 84.008 431.126 85.1558 435.32 85.1724C439.217 85.1879 442.625 84.1408 445.544 82.031C448.513 79.9215 450.72 76.9949 452.165 73.2512L434.405 73.1807L435.768 65.3421L463.74 65.4531L462.076 74.4746C460.73 78.0706 458.645 81.3924 455.821 84.4398C452.997 87.4873 449.632 89.9406 445.727 91.7998C441.823 93.6097 437.651 94.5058 433.211 94.4882C428.82 94.4707 424.951 93.5673 421.603 91.778C418.305 89.9889 415.725 87.512 413.863 84.3472C412.05 81.1334 411.152 77.4298 411.169 73.2365C411.176 71.5591 411.33 69.8331 411.633 68.0583ZM493.178 42.6298L487.427 74.5013C487.224 75.8818 487.122 76.8434 487.12 77.3861C487.11 79.9514 487.866 81.9277 489.39 83.3151C490.914 84.6532 493.082 85.3278 495.894 85.339C499.249 85.3523 501.991 84.4505 504.119 82.6336C506.297 80.7676 507.714 78.0845 508.369 74.5844L514.12 42.713L524.554 42.7544L518.803 74.6258C517.996 79.0627 516.378 82.8056 513.948 85.8546C511.519 88.8544 508.575 91.112 505.115 92.6276C501.706 94.0941 498.027 94.8195 494.081 94.8038C488.851 94.7831 484.614 93.4096 481.369 90.6833C478.173 87.9573 476.585 84.0536 476.605 78.9723C476.611 77.591 476.765 76.0869 477.067 74.4601L482.818 42.5887L493.178 42.6298ZM566.069 84.7296L545.423 84.6476L540.278 94.4693L529.4 94.4261L557.355 42.8106L569.417 42.8585L578.61 94.6214L567.658 94.578L566.069 84.7296ZM564.769 76.6584L561.156 54.7398L549.673 76.5984L564.769 76.6584ZM604.824 86.8075L621.844 86.875L620.406 94.7874L592.952 94.6784L602.333 43.0632L612.693 43.1044L604.824 86.8075Z" fill="#FF5ABD"/>
</g>
<g style="mix-blend-mode:color-dodge" filter="url(#filter4_d_6_30)">
<path d="M85.4818 41.0111L76.1748 92.6265L65.7409 92.5851L71.7937 59.1609L51.977 92.5305L44.0591 92.499L36.2742 58.9458L30.2212 92.4441L19.7873 92.4027L29.1683 40.7875L40.9342 40.8342L50.4759 79.2044L73.7159 40.9644L85.4818 41.0111ZM113.336 41.1217L107.586 72.9931C107.383 74.3736 107.28 75.3352 107.278 75.8779C107.268 78.4432 108.025 80.4196 109.549 81.807C111.073 83.145 113.241 83.8196 116.053 83.8308C119.407 83.8441 122.149 82.9423 124.278 81.1254C126.456 79.2594 127.872 76.5763 128.528 73.0762L134.278 41.2048L144.712 41.2463L138.961 73.1177C138.154 77.5545 136.536 81.2974 134.107 84.3465C131.678 87.3462 128.733 89.6039 125.274 91.1195C121.864 92.5859 118.186 93.3113 114.239 93.2957C109.01 93.2749 104.773 91.9014 101.527 89.1752C98.3315 86.4491 96.7437 82.5455 96.7638 77.4642C96.7693 76.0828 96.9233 74.5788 97.2258 72.952L102.976 41.0805L113.336 41.1217ZM164.612 85.0596L181.632 85.1272L180.194 93.0395L152.741 92.9305L162.122 41.3154L172.481 41.3565L164.612 85.0596ZM238.636 41.6192L237.123 49.7532L223.434 49.6989L215.565 93.18L205.131 93.1386L213 49.6575L199.236 49.6028L200.748 41.4687L238.636 41.6192ZM263.955 41.7197L254.648 93.3352L244.214 93.2937L253.595 41.6786L263.955 41.7197ZM284.08 85.534L301.1 85.6015L299.663 93.5139L272.209 93.4049L281.59 41.7897L291.95 41.8309L284.08 85.534ZM333.315 41.9951L324.008 93.6105L313.574 93.5691L322.955 41.954L333.315 41.9951ZM385.821 93.856L375.387 93.8145L358.434 58.301L352.003 93.7217L341.569 93.6803L350.95 41.9911L361.31 42.0322L378.337 77.6201L384.768 42.1254L395.128 42.1665L385.821 93.856ZM405.633 68.0344C406.542 62.9567 408.508 58.4258 411.533 54.4418C414.559 50.4084 418.271 47.2904 422.671 45.0879C427.07 42.836 431.737 41.7199 436.67 41.7395C442.491 41.7626 447.271 43.2122 451.009 46.0884C454.796 48.9155 457.075 52.8959 457.844 58.0297L445.93 57.9823C445.149 55.8086 443.824 54.1506 441.953 53.0085C440.083 51.8664 437.767 51.2899 435.004 51.2789C431.946 51.2668 429.106 51.9462 426.486 53.3171C423.866 54.6881 421.663 56.6527 419.877 59.2109C418.09 61.7692 416.895 64.7245 416.289 68.0767C416.038 69.2598 415.909 70.6159 415.903 72.1452C415.887 76.1905 417.059 79.3772 419.417 81.7053C421.826 83.9842 425.126 85.132 429.32 85.1486C433.217 85.1641 436.625 84.1169 439.544 82.0072C442.513 79.8976 444.72 76.971 446.165 73.2274L428.405 73.1569L429.768 65.3182L457.74 65.4293L456.076 74.4508C454.73 78.0468 452.645 81.3685 449.821 84.416C446.997 87.4635 443.632 89.9168 439.727 91.776C435.823 93.5858 431.651 94.4819 427.211 94.4643C422.82 94.4469 418.951 93.5435 415.603 91.7542C412.305 89.9651 409.725 87.4882 407.863 84.3234C406.05 81.1095 405.152 77.4059 405.169 73.2126C405.176 71.5353 405.33 69.8092 405.633 68.0344ZM487.178 42.606L481.427 74.4774C481.224 75.858 481.122 76.8196 481.12 77.3622C481.11 79.9275 481.866 81.9039 483.39 83.2913C484.914 84.6293 487.082 85.304 489.894 85.3151C493.249 85.3284 495.991 84.4267 498.119 82.6098C500.297 80.7437 501.714 78.0607 502.369 74.5606L508.12 42.6891L518.554 42.7306L512.803 74.602C511.996 79.0388 510.378 82.7818 507.948 85.8308C505.519 88.8305 502.575 91.0882 499.115 92.6038C495.706 94.0703 492.027 94.7957 488.081 94.78C482.851 94.7592 478.614 93.3857 475.369 90.6595C472.173 87.9335 470.585 84.0298 470.605 78.9485C470.611 77.5672 470.765 76.0631 471.067 74.4363L476.818 42.5649L487.178 42.606ZM560.069 84.7057L539.423 84.6238L534.278 94.4454L523.4 94.4022L551.355 42.7868L563.417 42.8347L572.61 94.5976L561.658 94.5541L560.069 84.7057ZM558.769 76.6345L555.156 54.716L543.673 76.5746L558.769 76.6345ZM598.824 86.7836L615.844 86.8512L614.406 94.7636L586.952 94.6546L596.333 43.0394L606.693 43.0805L598.824 86.7836Z" fill="#3965FF"/>
</g>
<g style="mix-blend-mode:color-dodge" filter="url(#filter5_d_6_30)">
<path d="M90.4699 44.0309L81.1629 95.6464L70.7289 95.6049L76.7817 62.1807L56.9651 95.5503L49.0471 95.5189L41.2623 61.9657L35.2092 95.4639L24.7753 95.4225L34.1563 43.8073L45.9222 43.854L55.464 82.2242L78.704 43.9842L90.4699 44.0309ZM118.324 44.1415L112.574 76.0129C112.371 77.3935 112.268 78.3551 112.266 78.8977C112.256 81.463 113.013 83.4394 114.537 84.8268C116.061 86.1649 118.229 86.8395 121.041 86.8506C124.395 86.864 127.137 85.9622 129.266 84.1453C131.444 82.2792 132.86 79.5962 133.516 76.0961L139.266 44.2247L149.7 44.2661L143.949 76.1375C143.143 80.5743 141.524 84.3173 139.095 87.3663C136.666 90.366 133.721 92.6237 130.262 94.1393C126.852 95.6058 123.174 96.3312 119.227 96.3155C113.998 96.2947 109.761 94.9212 106.515 92.195C103.32 89.469 101.732 85.5653 101.752 80.484C101.757 79.1027 101.911 77.5986 102.214 75.9718L107.964 44.1004L118.324 44.1415ZM169.6 88.0794L186.62 88.147L185.182 96.0594L157.729 95.9504L167.11 44.3352L177.469 44.3763L169.6 88.0794ZM243.624 44.639L242.112 52.7731L228.422 52.7187L220.553 96.1998L210.119 96.1584L217.988 52.6773L204.224 52.6226L205.736 44.4886L243.624 44.639ZM268.943 44.7395L259.636 96.355L249.202 96.3136L258.583 44.6984L268.943 44.7395ZM289.068 88.5538L306.088 88.6214L304.651 96.5337L277.197 96.4247L286.578 44.8096L296.938 44.8507L289.068 88.5538ZM338.303 45.0149L328.996 96.6304L318.562 96.589L327.943 44.9738L338.303 45.0149ZM390.809 96.8758L380.375 96.8344L363.422 61.3208L356.991 96.7415L346.557 96.7001L355.938 45.0109L366.298 45.0521L383.325 80.64L389.756 45.1452L400.116 45.1864L390.809 96.8758ZM410.622 71.0543C411.53 65.9765 413.496 61.4456 416.522 57.4616C419.547 53.4282 423.259 50.3103 427.659 48.1077C432.058 45.8559 436.725 44.7397 441.658 44.7593C447.479 44.7824 452.259 46.2321 455.997 49.1083C459.784 51.9353 462.063 55.9157 462.832 61.0495L450.918 61.0022C450.137 58.8284 448.812 57.1705 446.941 56.0284C445.071 54.8863 442.755 54.3097 439.992 54.2988C436.934 54.2866 434.094 54.966 431.474 56.3369C428.854 57.7079 426.651 59.6725 424.865 62.2308C423.078 64.789 421.883 67.7443 421.277 71.0966C421.026 72.2796 420.897 73.6358 420.891 75.1651C420.875 79.2104 422.047 82.3971 424.405 84.7251C426.814 87.004 430.114 88.1518 434.308 88.1685C438.205 88.1839 441.613 87.1368 444.532 85.027C447.501 82.9175 449.708 79.9909 451.153 76.2472L433.393 76.1767L434.756 68.3381L462.728 68.4491L461.064 77.4706C459.718 81.0666 457.633 84.3884 454.809 87.4358C451.985 90.4833 448.62 92.9367 444.716 94.7958C440.811 96.6057 436.639 97.5018 432.199 97.4842C427.808 97.4667 423.939 96.5634 420.591 94.774C417.293 92.9849 414.713 90.508 412.851 87.3433C411.038 84.1294 410.14 80.4258 410.157 76.2325C410.164 74.5551 410.318 72.8291 410.622 71.0543ZM492.166 45.6258L486.415 77.4973C486.212 78.8778 486.11 79.8394 486.108 80.3821C486.098 82.9474 486.854 84.9237 488.378 86.3111C489.902 87.6492 492.07 88.3238 494.882 88.335C498.237 88.3483 500.979 87.4465 503.107 85.6296C505.285 83.7636 506.702 81.0805 507.357 77.5804L513.108 45.709L523.542 45.7504L517.791 77.6218C516.984 82.0587 515.366 85.8016 512.936 88.8506C510.507 91.8504 507.563 94.108 504.103 95.6236C500.694 97.0901 497.015 97.8155 493.069 97.7998C487.839 97.7791 483.602 96.4056 480.357 93.6793C477.161 90.9533 475.573 87.0496 475.593 81.9683C475.599 80.587 475.753 79.0829 476.055 77.4561L481.806 45.5847L492.166 45.6258ZM565.057 87.7256L544.411 87.6436L539.266 97.4653L528.388 97.4221L556.343 45.8066L568.405 45.8545L577.598 97.6175L566.646 97.574L565.057 87.7256ZM563.757 79.6544L560.144 57.7358L548.661 79.5944L563.757 79.6544ZM603.812 89.8035L620.832 89.871L619.394 97.7834L591.94 97.6744L601.321 46.0592L611.681 46.1004L603.812 89.8035Z" fill="#EDFF1F"/>
</g>
<g style="mix-blend-mode:color-dodge" filter="url(#filter6_d_6_30)">
<path d="M88.458 47.023L79.151 98.6384L68.7171 98.597L74.7699 65.1727L54.9532 98.5423L47.0353 98.5109L39.2504 64.9577L33.1974 98.456L22.7635 98.4145L32.1445 46.7994L43.9104 46.8461L53.4521 85.2163L76.6921 46.9762L88.458 47.023ZM116.312 47.1335L110.562 79.005C110.359 80.3855 110.257 81.3471 110.254 81.8898C110.244 84.4551 111.001 86.4314 112.525 87.8188C114.049 89.1569 116.217 89.8315 119.029 89.8427C122.384 89.856 125.125 88.9542 127.254 87.1373C129.432 85.2713 130.848 82.5882 131.504 79.0881L137.254 47.2167L147.688 47.2581L141.938 79.1295C141.131 83.5664 139.512 87.3093 137.083 90.3584C134.654 93.3581 131.709 95.6157 128.25 97.1313C124.84 98.5978 121.162 99.3232 117.215 99.3075C111.986 99.2868 107.749 97.9133 104.504 95.187C101.308 92.461 99.7199 88.5573 99.74 83.476C99.7455 82.0947 99.8995 80.5906 100.202 78.9638L105.953 47.0924L116.312 47.1335ZM167.588 91.0715L184.608 91.1391L183.171 99.0514L155.717 98.9424L165.098 47.3272L175.458 47.3684L167.588 91.0715ZM241.612 47.631L240.1 55.7651L226.41 55.7108L218.541 99.1919L208.107 99.1504L215.976 55.6693L202.212 55.6147L203.724 47.4806L241.612 47.631ZM266.931 47.7316L257.624 99.347L247.19 99.3056L256.571 47.6904L266.931 47.7316ZM287.057 91.5458L304.077 91.6134L302.639 99.5258L275.185 99.4168L284.566 47.8016L294.926 47.8427L287.057 91.5458ZM336.291 48.007L326.984 99.6224L316.55 99.581L325.931 47.9658L336.291 48.007ZM388.797 99.8678L378.363 99.8264L361.41 64.3128L354.979 99.7336L344.545 99.6921L353.927 48.003L364.287 48.0441L381.313 83.632L387.744 48.1373L398.104 48.1784L388.797 99.8678ZM408.61 74.0463C409.518 68.9685 411.485 64.4376 414.51 60.4536C417.535 56.4203 421.247 53.3023 425.647 51.0998C430.047 48.8479 434.713 47.7317 439.646 47.7513C445.468 47.7744 450.247 49.2241 453.985 52.1003C457.773 54.9274 460.051 58.9078 460.82 64.0415L448.906 63.9942C448.125 61.8204 446.8 60.1625 444.93 59.0204C443.059 57.8783 440.743 57.3018 437.98 57.2908C434.922 57.2786 432.082 57.958 429.462 59.329C426.842 60.6999 424.639 62.6645 422.853 65.2228C421.067 67.781 419.871 70.7363 419.266 74.0886C419.014 75.2716 418.886 76.6278 418.879 78.1571C418.863 82.2024 420.035 85.3891 422.394 87.7171C424.802 89.9961 428.103 91.1438 432.296 91.1605C436.193 91.176 439.601 90.1288 442.52 88.0191C445.489 85.9095 447.696 82.9829 449.141 79.2393L431.382 79.1688L432.745 71.3301L460.716 71.4412L459.053 80.4626C457.706 84.0587 455.621 87.3804 452.797 90.4279C449.973 93.4754 446.608 95.9287 442.704 97.7879C438.799 99.5977 434.627 100.494 430.187 100.476C425.796 100.459 421.927 99.5554 418.58 97.7661C415.281 95.977 412.701 93.5 410.839 90.3353C409.026 87.1214 408.128 83.4178 408.145 79.2245C408.152 77.5472 408.307 75.8211 408.61 74.0463ZM490.154 48.6179L484.403 80.4893C484.201 81.8698 484.098 82.8314 484.096 83.3741C484.086 85.9394 484.843 87.9158 486.366 89.3032C487.891 90.6412 490.059 91.3158 492.871 91.327C496.225 91.3403 498.967 90.4385 501.095 88.6216C503.273 86.7556 504.69 84.0725 505.345 80.5724L511.096 48.701L521.53 48.7424L515.779 80.6139C514.972 85.0507 513.354 88.7936 510.925 91.8427C508.495 94.8424 505.551 97.1001 502.092 98.6157C498.682 100.082 495.004 100.808 491.057 100.792C485.828 100.771 481.59 99.3976 478.345 96.6714C475.149 93.9453 473.561 90.0417 473.582 84.9604C473.587 83.579 473.741 82.075 474.044 80.4482L479.794 48.5767L490.154 48.6179ZM563.045 90.7176L542.399 90.6356L537.254 100.457L526.376 100.414L554.331 48.7987L566.393 48.8466L575.586 100.609L564.634 100.566L563.045 90.7176ZM561.745 82.6464L558.132 60.7279L546.649 82.5865L561.745 82.6464ZM601.8 92.7955L618.82 92.8631L617.382 100.775L589.929 100.666L599.31 49.0513L609.669 49.0924L601.8 92.7955Z" fill="#5AFFBA"/>
</g>
<g style="mix-blend-mode:color-dodge" opacity="0.9">
<g style="mix-blend-mode:color-dodge">
<path d="M86.4739 43.015L87.458 43.1925L87.6695 42.0198L86.4779 42.0151L86.4739 43.015ZM77.1669 94.6305L77.1629 95.6305L78.0021 95.6338L78.151 94.808L77.1669 94.6305ZM66.733 94.5891L65.749 94.4109L65.5365 95.5843L66.729 95.5891L66.733 94.5891ZM72.7857 61.1648L73.7697 61.343L71.9259 60.6542L72.7857 61.1648ZM52.9691 94.5344L52.9651 95.5344L53.5369 95.5367L53.8289 95.045L52.9691 94.5344ZM45.0511 94.503L44.077 94.729L44.2559 95.4998L45.0472 95.503L45.0511 94.503ZM37.2663 60.9498L38.2404 60.7238L36.2822 60.772L37.2663 60.9498ZM31.2133 94.448L31.2093 95.448L32.0482 95.4514L32.1973 94.6259L31.2133 94.448ZM20.7793 94.4066L19.7955 94.2278L19.5821 95.4019L20.7754 95.4066L20.7793 94.4066ZM30.1603 42.7915L30.1643 41.7915L29.3263 41.7881L29.1765 42.6126L30.1603 42.7915ZM41.9263 42.8382L42.8967 42.5968L42.7088 41.8413L41.9302 41.8382L41.9263 42.8382ZM51.468 81.2084L50.4975 81.4497L51.0765 83.778L52.3225 81.7277L51.468 81.2084ZM74.708 42.9683L74.712 41.9683L74.1469 41.9661L73.8534 42.449L74.708 42.9683ZM85.4898 42.8376L76.1828 94.4531L78.151 94.808L87.458 43.1925L85.4898 42.8376ZM77.1709 93.6305L66.7369 93.5891L66.729 95.5891L77.1629 95.6305L77.1709 93.6305ZM67.717 94.7673L73.7697 61.343L71.8017 60.9867L65.749 94.4109L67.717 94.7673ZM71.9259 60.6542L52.1093 94.0238L53.8289 95.045L73.6456 61.6754L71.9259 60.6542ZM52.9731 93.5344L45.0551 93.503L45.0472 95.503L52.9651 95.5344L52.9731 93.5344ZM46.0253 94.277L38.2404 60.7238L36.2922 61.1758L44.077 94.729L46.0253 94.277ZM36.2822 60.772L30.2292 94.2702L32.1973 94.6259L38.2504 61.1276L36.2822 60.772ZM31.2172 93.4481L20.7833 93.4066L20.7754 95.4066L31.2093 95.448L31.2172 93.4481ZM21.7632 94.5854L31.1442 42.9703L29.1765 42.6126L19.7955 94.2278L21.7632 94.5854ZM30.1564 43.7914L41.9223 43.8382L41.9302 41.8382L30.1643 41.7915L30.1564 43.7914ZM40.9558 43.0795L50.4975 81.4497L52.4384 80.967L42.8967 42.5968L40.9558 43.0795ZM52.3225 81.7277L75.5626 43.4877L73.8534 42.449L50.6134 80.689L52.3225 81.7277ZM74.704 43.9683L86.4699 44.015L86.4779 42.0151L74.712 41.9683L74.704 43.9683ZM114.328 43.1256L115.312 43.3032L115.524 42.1304L114.332 42.1257L114.328 43.1256ZM108.578 74.9971L107.594 74.8195L107.591 74.8356L107.588 74.8517L108.578 74.9971ZM110.541 83.8109L109.868 84.5504L109.874 84.5564L109.881 84.5624L110.541 83.8109ZM125.27 83.1294L125.919 83.89L125.92 83.8888L125.27 83.1294ZM129.52 75.0802L130.503 75.2642L130.504 75.2578L129.52 75.0802ZM135.27 43.2088L135.274 42.2088L134.435 42.2055L134.286 43.0312L135.27 43.2088ZM145.704 43.2502L146.688 43.4278L146.9 42.255L145.708 42.2502L145.704 43.2502ZM139.953 75.1216L140.937 75.3006L140.938 75.2992L139.953 75.1216ZM135.099 86.3505L135.876 86.9798L135.881 86.9736L135.099 86.3505ZM126.266 93.1234L126.661 94.0421L126.667 94.0394L126.266 93.1234ZM102.519 91.1791L101.87 91.94L101.876 91.9448L102.519 91.1791ZM98.2178 74.9559L99.201 75.1387L99.2019 75.1335L98.2178 74.9559ZM103.968 43.0845L103.972 42.0845L103.133 42.0812L102.984 42.9069L103.968 43.0845ZM113.344 42.9481L107.594 74.8195L109.562 75.1746L115.312 43.3032L113.344 42.9481ZM107.588 74.8517C107.386 76.2286 107.273 77.2553 107.27 77.8779L109.27 77.8858C109.272 77.4231 109.364 76.5266 109.567 75.1424L107.588 74.8517ZM107.27 77.8779C107.259 80.6516 108.085 82.9276 109.868 84.5504L111.214 83.0715C109.949 81.9195 109.261 80.2427 109.27 77.8858L107.27 77.8779ZM109.881 84.5624C111.646 86.112 114.081 86.823 117.041 86.8348L117.049 84.8348C114.385 84.8242 112.484 84.186 111.201 83.0595L109.881 84.5624ZM117.041 86.8348C120.585 86.8488 123.574 85.8918 125.919 83.89L124.62 82.3688C122.708 84.0008 120.214 84.8473 117.049 84.8348L117.041 86.8348ZM125.92 83.8888C128.31 81.8415 129.816 78.9328 130.503 75.2642L128.537 74.8962C127.913 78.2278 126.585 80.6853 124.619 82.37L125.92 83.8888ZM130.504 75.2578L136.254 43.3864L134.286 43.0312L128.535 74.9026L130.504 75.2578ZM135.266 44.2088L145.7 44.2502L145.708 42.2502L135.274 42.2088L135.266 44.2088ZM144.72 43.0727L138.969 74.9441L140.938 75.2992L146.688 43.4278L144.72 43.0727ZM138.97 74.9427C138.188 79.2427 136.628 82.8263 134.317 85.7273L135.881 86.9736C138.428 83.7765 140.106 79.8743 140.937 75.3006L138.97 74.9427ZM134.322 85.7211C131.991 88.5995 129.174 90.7575 125.865 92.2075L126.667 94.0394C130.276 92.4582 133.348 90.1009 135.876 86.9798L134.322 85.7211ZM125.871 92.2048C122.595 93.6137 119.053 94.3148 115.235 94.2996L115.227 96.2996C119.302 96.3158 123.117 95.5661 126.661 94.0421L125.871 92.2048ZM115.235 94.2996C110.183 94.2796 106.19 92.9565 103.163 90.4135L101.876 91.9448C105.339 94.8543 109.82 96.2782 115.227 96.2996L115.235 94.2996ZM103.168 90.4183C100.243 87.9231 98.7366 84.3269 98.7559 79.4721L96.7559 79.4642C96.7348 84.7719 98.404 88.9831 101.87 91.94L103.168 90.4183ZM98.7559 79.4721C98.7611 78.1611 98.9074 76.7177 99.201 75.1387L97.2347 74.7731C96.9233 76.4478 96.7617 78.0125 96.7559 79.4642L98.7559 79.4721ZM99.2019 75.1335L104.953 43.2621L102.984 42.9069L97.2337 74.7784L99.2019 75.1335ZM103.964 44.0845L114.324 44.1256L114.332 42.1257L103.972 42.0845L103.964 44.0845ZM165.604 87.0636L164.62 86.8864L164.409 88.0588L165.6 88.0636L165.604 87.0636ZM182.624 87.1312L183.608 87.3099L183.821 86.1359L182.628 86.1312L182.624 87.1312ZM181.186 95.0435L181.182 96.0435L182.02 96.0468L182.17 95.2223L181.186 95.0435ZM153.733 94.9345L152.749 94.7557L152.535 95.9298L153.729 95.9345L153.733 94.9345ZM163.114 43.3193L163.118 42.3194L162.28 42.316L162.13 43.1405L163.114 43.3193ZM173.474 43.3605L174.458 43.5377L174.669 42.3652L173.477 42.3605L173.474 43.3605ZM165.6 88.0636L182.62 88.1311L182.628 86.1312L165.608 86.0636L165.6 88.0636ZM181.64 86.9524L180.202 94.8648L182.17 95.2223L183.608 87.3099L181.64 86.9524ZM181.19 94.0435L153.737 93.9345L153.729 95.9345L181.182 96.0435L181.19 94.0435ZM154.716 95.1133L164.097 43.4982L162.13 43.1405L152.749 94.7557L154.716 95.1133ZM163.11 44.3193L173.47 44.3605L173.477 42.3605L163.118 42.3194L163.11 44.3193ZM172.489 43.1833L164.62 86.8864L166.588 87.2408L174.458 43.5377L172.489 43.1833ZM239.628 43.6231L240.611 43.8059L240.83 42.6279L239.632 42.6231L239.628 43.6231ZM238.116 51.7572L238.112 52.7572L238.946 52.7605L239.099 51.94L238.116 51.7572ZM224.426 51.7028L224.43 50.7029L223.591 50.6995L223.442 51.5248L224.426 51.7028ZM216.557 95.1839L216.553 96.1839L217.392 96.1873L217.541 95.362L216.557 95.1839ZM206.123 95.1425L205.139 94.9644L204.927 96.1378L206.119 96.1425L206.123 95.1425ZM213.992 51.6614L214.976 51.8395L215.188 50.6662L213.996 50.6614L213.992 51.6614ZM200.228 51.6068L199.245 51.424L199.026 52.602L200.224 52.6068L200.228 51.6068ZM201.74 43.4727L201.744 42.4727L200.91 42.4694L200.757 43.2899L201.74 43.4727ZM238.645 43.4403L237.132 51.5744L239.099 51.94L240.611 43.8059L238.645 43.4403ZM238.12 50.7572L224.43 50.7029L224.422 52.7028L238.112 52.7572L238.12 50.7572ZM223.442 51.5248L215.573 95.0059L217.541 95.362L225.41 51.8809L223.442 51.5248ZM216.561 94.184L206.127 94.1425L206.119 96.1425L216.553 96.1839L216.561 94.184ZM207.107 95.3206L214.976 51.8395L213.008 51.4833L205.139 94.9644L207.107 95.3206ZM213.996 50.6614L200.232 50.6068L200.224 52.6068L213.988 52.6614L213.996 50.6614ZM201.211 51.7896L202.723 43.6555L200.757 43.2899L199.245 51.424L201.211 51.7896ZM201.736 44.4727L239.624 44.6231L239.632 42.6231L201.744 42.4727L201.736 44.4727ZM264.947 43.7237L265.931 43.9011L266.142 42.7284L264.951 42.7237L264.947 43.7237ZM255.64 95.3391L255.636 96.3391L256.475 96.3424L256.624 95.5166L255.64 95.3391ZM245.206 95.2977L244.222 95.1189L244.008 96.293L245.202 96.2977L245.206 95.2977ZM254.587 43.6825L254.591 42.6825L253.753 42.6792L253.603 43.5037L254.587 43.6825ZM263.963 43.5462L254.655 95.1617L256.624 95.5166L265.931 43.9011L263.963 43.5462ZM255.644 94.3391L245.21 94.2977L245.202 96.2977L255.636 96.3391L255.644 94.3391ZM246.19 95.4765L255.571 43.8614L253.603 43.5037L244.222 95.1189L246.19 95.4765ZM254.583 44.6825L264.943 44.7237L264.951 42.7237L254.591 42.6825L254.583 44.6825ZM285.073 87.5379L284.088 87.3607L283.877 88.5332L285.069 88.5379L285.073 87.5379ZM302.092 87.6055L303.076 87.7842L303.29 86.6102L302.096 86.6055L302.092 87.6055ZM300.655 95.5179L300.651 96.5178L301.489 96.5212L301.639 95.6966L300.655 95.5179ZM273.201 95.4089L272.217 95.23L272.004 96.4041L273.197 96.4088L273.201 95.4089ZM282.582 43.7937L282.586 42.7937L281.748 42.7904L281.598 43.6149L282.582 43.7937ZM292.942 43.8348L293.926 44.012L294.137 42.8396L292.946 42.8348L292.942 43.8348ZM285.069 88.5379L302.088 88.6055L302.096 86.6055L285.076 86.5379L285.069 88.5379ZM301.108 87.4268L299.671 95.3391L301.639 95.6966L303.076 87.7842L301.108 87.4268ZM300.659 94.5179L273.205 94.4089L273.197 96.4088L300.651 96.5178L300.659 94.5179ZM274.185 95.5877L283.566 43.9725L281.598 43.6149L272.217 95.23L274.185 95.5877ZM282.578 44.7937L292.938 44.8348L292.946 42.8348L282.586 42.7937L282.578 44.7937ZM291.958 43.6576L284.088 87.3607L286.057 87.7151L293.926 44.012L291.958 43.6576ZM334.307 43.9991L335.291 44.1765L335.502 43.0038L334.311 42.9991L334.307 43.9991ZM325 95.6145L324.996 96.6145L325.835 96.6178L325.984 95.792L325 95.6145ZM314.566 95.5731L313.582 95.3943L313.368 96.5683L314.562 96.5731L314.566 95.5731ZM323.947 43.9579L323.951 42.9579L323.113 42.9546L322.963 43.7791L323.947 43.9579ZM333.322 43.8216L324.015 95.4371L325.984 95.792L335.291 44.1765L333.322 43.8216ZM325.004 94.6145L314.57 94.5731L314.562 96.5731L324.996 96.6145L325.004 94.6145ZM315.55 95.7519L324.931 44.1367L322.963 43.7791L313.582 95.3943L315.55 95.7519ZM323.943 44.9579L334.303 44.9991L334.311 42.9991L323.951 42.9579L323.943 44.9579ZM386.813 95.8599L386.809 96.8599L387.648 96.8633L387.797 96.0372L386.813 95.8599ZM376.379 95.8185L375.476 96.2493L375.747 96.816L376.375 96.8185L376.379 95.8185ZM359.426 60.3049L360.328 59.8741L358.995 57.0808L358.442 60.1263L359.426 60.3049ZM352.995 95.7257L352.991 96.7257L353.829 96.729L353.979 95.9043L352.995 95.7257ZM342.561 95.6842L341.577 95.5057L341.364 96.6795L342.557 96.6842L342.561 95.6842ZM351.942 43.9951L351.946 42.9951L351.108 42.9918L350.959 43.8165L351.942 43.9951ZM362.302 44.0362L363.204 43.6046L362.934 43.0387L362.306 43.0362L362.302 44.0362ZM379.329 79.6241L378.427 80.0557L379.762 82.8454L380.313 79.8024L379.329 79.6241ZM385.76 44.1294L385.764 43.1294L384.926 43.126L384.776 43.9511L385.76 44.1294ZM396.12 44.1705L397.104 44.3477L397.315 43.1752L396.124 43.1705L396.12 44.1705ZM386.817 94.86L376.383 94.8185L376.375 96.8185L386.809 96.8599L386.817 94.86ZM377.281 95.3877L360.328 59.8741L358.523 60.7357L375.476 96.2493L377.281 95.3877ZM358.442 60.1263L352.011 95.547L353.979 95.9043L360.41 60.4836L358.442 60.1263ZM352.999 94.7257L342.565 94.6843L342.557 96.6842L352.991 96.7257L352.999 94.7257ZM343.545 95.8628L352.926 44.1737L350.959 43.8165L341.577 95.5057L343.545 95.8628ZM351.939 44.9951L362.298 45.0362L362.306 43.0362L351.946 42.9951L351.939 44.9951ZM361.4 44.4678L378.427 80.0557L380.231 79.1925L363.204 43.6046L361.4 44.4678ZM380.313 79.8024L386.744 44.3076L384.776 43.9511L378.345 79.4458L380.313 79.8024ZM385.756 45.1293L396.116 45.1705L396.124 43.1705L385.764 43.1294L385.756 45.1293ZM395.136 43.9933L385.829 95.6827L387.797 96.0372L397.104 44.3477L395.136 43.9933ZM406.626 70.0384L405.641 69.8623L405.64 69.8701L406.626 70.0384ZM412.526 56.4457L413.322 57.0505L413.326 57.0458L412.526 56.4457ZM423.663 47.0919L424.11 47.9861L424.118 47.982L423.663 47.0919ZM452.001 48.0924L451.391 48.8849L451.397 48.8894L451.403 48.8938L452.001 48.0924ZM458.836 60.0336L458.832 61.0336L459.997 61.0382L459.825 59.8855L458.836 60.0336ZM446.922 59.9863L445.981 60.3243L446.217 60.9835L446.918 60.9863L446.922 59.9863ZM420.869 61.2149L420.049 60.6424L420.049 60.6424L420.869 61.2149ZM417.281 70.0807L418.26 70.2886L418.263 70.2735L418.266 70.2584L417.281 70.0807ZM420.409 83.7092L419.707 84.421L419.714 84.4284L419.722 84.4356L420.409 83.7092ZM440.536 84.0112L439.957 83.196L439.951 83.2007L440.536 84.0112ZM447.157 75.2314L448.09 75.5916L448.613 74.2371L447.161 74.2314L447.157 75.2314ZM429.397 75.1609L428.412 74.9895L428.209 76.1561L429.393 76.1608L429.397 75.1609ZM430.761 67.3222L430.764 66.3222L429.92 66.3189L429.775 67.1509L430.761 67.3222ZM458.732 67.4333L459.716 67.6146L459.933 66.438L458.736 66.4333L458.732 67.4333ZM457.068 76.4547L458.005 76.8054L458.036 76.7228L458.052 76.6361L457.068 76.4547ZM450.813 86.42L451.546 87.0997L451.546 87.0997L450.813 86.42ZM440.72 93.78L441.14 94.6873L441.149 94.6828L440.72 93.78ZM416.595 93.7582L416.119 94.6372L416.124 94.6401L416.595 93.7582ZM408.855 86.3274L407.984 86.8186L407.988 86.8266L407.993 86.8345L408.855 86.3274ZM407.61 70.2145C408.491 65.2874 410.396 60.9045 413.322 57.0505L411.729 55.841C408.605 59.955 406.576 64.6338 405.641 69.8623L407.61 70.2145ZM413.326 57.0458C416.26 53.1333 419.853 50.1174 424.11 47.9861L423.215 46.1977C418.674 48.4714 414.842 51.6915 411.726 55.8457L413.326 57.0458ZM424.118 47.982C428.376 45.8028 432.885 44.7245 437.658 44.7434L437.666 42.7434C432.573 42.7232 427.749 43.8772 423.207 46.2017L424.118 47.982ZM437.658 44.7434C443.313 44.7659 447.864 46.1712 451.391 48.8849L452.611 47.2999C448.662 44.2612 443.654 42.7672 437.666 42.7434L437.658 44.7434ZM451.403 48.8938C454.957 51.5469 457.113 55.2806 457.847 60.1818L459.825 59.8855C459.021 54.5191 456.62 50.292 452.599 47.291L451.403 48.8938ZM458.84 59.0336L446.926 58.9863L446.918 60.9863L458.832 61.0336L458.84 59.0336ZM447.863 59.6483C447.01 57.2723 445.543 55.4268 443.467 54.1591L442.424 55.8659C444.089 56.8824 445.273 58.3527 445.981 60.3243L447.863 59.6483ZM443.467 54.1591C441.405 52.8999 438.898 52.2944 436 52.2829L435.992 54.2829C438.62 54.2933 440.746 54.8408 442.424 55.8659L443.467 54.1591ZM436 52.2829C432.785 52.2701 429.784 52.986 427.015 54.435L427.942 56.2071C430.413 54.9143 433.091 54.2714 435.992 54.2829L436 52.2829ZM427.015 54.435C424.244 55.8845 421.922 57.96 420.049 60.6424L421.689 61.7874C423.388 59.3532 425.472 57.4995 427.942 56.2071L427.015 54.435ZM420.049 60.6424C418.173 63.3294 416.926 66.422 416.297 69.903L418.266 70.2584C418.848 67.0348 419.992 64.2169 421.689 61.7874L420.049 60.6424ZM416.303 69.8729C416.035 71.1378 415.902 72.5645 415.895 74.1452L417.895 74.1532C417.901 72.6753 418.026 71.3897 418.26 70.2886L416.303 69.8729ZM415.895 74.1452C415.878 78.3961 417.116 81.8638 419.707 84.421L421.112 82.9975C418.985 80.8986 417.88 77.993 417.895 74.1532L415.895 74.1452ZM419.722 84.4356C422.36 86.9322 425.93 88.1352 430.308 88.1526L430.316 86.1526C426.307 86.1367 423.275 85.0441 421.097 82.9829L419.722 84.4356ZM430.308 88.1526C434.398 88.1688 438.017 87.0657 441.122 84.8216L439.951 83.2007C437.217 85.1761 434.02 86.1673 430.316 86.1526L430.308 88.1526ZM441.116 84.8263C444.26 82.5916 446.581 79.4988 448.09 75.5916L446.224 74.8712C444.842 78.4512 442.749 81.2116 439.957 83.196L441.116 84.8263ZM447.161 74.2314L429.401 74.1609L429.393 76.1608L447.153 76.2314L447.161 74.2314ZM430.383 75.3322L431.746 67.4935L429.775 67.1509L428.412 74.9895L430.383 75.3322ZM430.757 68.3222L458.728 68.4333L458.736 66.4333L430.764 66.3222L430.757 68.3222ZM457.749 67.2519L456.085 76.2734L458.052 76.6361L459.716 67.6146L457.749 67.2519ZM456.132 76.1041C454.835 79.5686 452.822 82.7803 450.079 85.7403L451.546 87.0997C454.452 83.9647 456.609 80.5329 458.005 76.8054L456.132 76.1041ZM450.079 85.7403C447.345 88.691 444.085 91.0701 440.29 92.8771L441.149 94.6828C445.164 92.7714 448.633 90.2439 451.546 87.0997L450.079 85.7403ZM440.299 92.8727C436.532 94.6189 432.505 95.4854 428.207 95.4683L428.199 97.4683C432.781 97.4865 437.098 96.5607 441.14 94.6872L440.299 92.8727ZM428.207 95.4683C423.954 95.4514 420.25 94.5774 417.067 92.8763L416.124 94.6401C419.637 96.5176 423.671 97.4503 428.199 97.4683L428.207 95.4683ZM417.072 92.8792C413.93 91.1747 411.485 88.8248 409.717 85.8203L407.993 86.8345C409.949 90.1595 412.664 92.7634 416.119 94.6372L417.072 92.8792ZM409.726 85.8361C408.01 82.793 407.145 79.2645 407.161 75.2206L405.161 75.2126C405.144 79.5553 406.075 83.434 407.984 86.8186L409.726 85.8361ZM407.161 75.2206C407.167 73.6022 407.317 71.9312 407.611 70.2067L405.64 69.8701C405.328 71.6953 405.168 73.4764 405.161 75.2126L407.161 75.2206ZM488.17 44.61L489.154 44.7875L489.366 43.6147L488.174 43.61L488.17 44.61ZM482.419 76.4814L481.435 76.3038L481.432 76.3199L481.43 76.336L482.419 76.4814ZM484.382 85.2953L483.709 86.0347L483.716 86.0408L483.723 86.0467L484.382 85.2953ZM499.111 84.6137L499.76 85.3743L499.762 85.3731L499.111 84.6137ZM503.361 76.5645L504.344 76.7485L504.345 76.7421L503.361 76.5645ZM509.112 44.6931L509.116 43.6931L508.277 43.6898L508.128 44.5156L509.112 44.6931ZM519.546 44.7345L520.53 44.9121L520.741 43.7393L519.55 43.7346L519.546 44.7345ZM513.795 76.606L514.779 76.7849L514.779 76.7835L513.795 76.606ZM508.94 87.8348L509.718 88.4641L509.723 88.4579L508.94 87.8348ZM500.108 94.6078L500.503 95.5264L500.509 95.5237L500.108 94.6078ZM476.361 92.6635L475.712 93.4243L475.718 93.4291L476.361 92.6635ZM472.059 76.4403L473.043 76.623L473.044 76.6178L472.059 76.4403ZM477.81 44.5688L477.814 43.5688L476.975 43.5655L476.826 44.3913L477.81 44.5688ZM487.186 44.4324L481.435 76.3038L483.403 76.659L489.154 44.7875L487.186 44.4324ZM481.43 76.336C481.228 77.713 481.114 78.7397 481.112 79.3622L483.112 79.3702C483.114 78.9074 483.205 78.0109 483.409 76.6267L481.43 76.336ZM481.112 79.3622C481.101 82.1359 481.927 84.4119 483.709 86.0347L485.056 84.5558C483.79 83.4038 483.103 81.7271 483.112 79.3702L481.112 79.3622ZM483.723 86.0467C485.488 87.5963 487.922 88.3073 490.882 88.3191L490.89 86.3191C488.227 86.3085 486.325 85.6703 485.042 84.5438L483.723 86.0467ZM490.882 88.3191C494.427 88.3332 497.415 87.3762 499.76 85.3743L498.462 83.8531C496.55 85.4851 494.055 86.3317 490.89 86.3191L490.882 88.3191ZM499.762 85.3731C502.152 83.3258 503.657 80.4172 504.344 76.7485L502.378 76.3805C501.755 79.7121 500.427 82.1696 498.461 83.8543L499.762 85.3731ZM504.345 76.7421L510.096 44.8707L508.128 44.5156L502.377 76.387L504.345 76.7421ZM509.108 45.6931L519.542 45.7345L519.55 43.7346L509.116 43.6931L509.108 45.6931ZM518.562 44.557L512.811 76.4284L514.779 76.7835L520.53 44.9121L518.562 44.557ZM512.811 76.427C512.029 80.727 510.47 84.3107 508.158 87.2116L509.723 88.4579C512.27 85.2608 513.947 81.3586 514.779 76.7849L512.811 76.427ZM508.163 87.2054C505.832 90.0838 503.016 92.2418 499.706 93.6918L500.509 95.5237C504.118 93.9425 507.19 91.5852 509.718 88.4641L508.163 87.2054ZM499.712 93.6891C496.436 95.098 492.895 95.7991 489.077 95.784L489.069 97.784C493.144 97.8001 496.959 97.0505 500.503 95.5264L499.712 93.6891ZM489.077 95.784C484.025 95.7639 480.031 94.4408 477.004 91.8978L475.718 93.4291C479.181 96.3386 483.662 97.7625 489.069 97.784L489.077 95.784ZM477.01 91.9026C474.085 89.4074 472.578 85.8113 472.597 80.9564L470.598 80.9485C470.576 86.2562 472.246 90.4674 475.712 93.4243L477.01 91.9026ZM472.597 80.9564C472.603 79.6455 472.749 78.202 473.043 76.623L471.076 76.2575C470.765 77.9321 470.603 79.4968 470.598 80.9485L472.597 80.9564ZM473.044 76.6178L478.794 44.7464L476.826 44.3913L471.075 76.2627L473.044 76.6178ZM477.806 45.5688L488.166 45.61L488.174 43.61L477.814 43.5688L477.806 45.5688ZM561.061 86.7097L562.048 86.5504L561.913 85.7131L561.065 85.7097L561.061 86.7097ZM540.415 86.6277L540.419 85.6277L539.811 85.6253L539.529 86.1637L540.415 86.6277ZM535.27 96.4494L535.266 97.4494L535.874 97.4518L536.156 96.9134L535.27 96.4494ZM524.392 96.4062L523.513 95.93L522.717 97.3996L524.388 97.4062L524.392 96.4062ZM552.347 44.7908L552.351 43.7908L551.753 43.7884L551.468 44.3145L552.347 44.7908ZM564.409 44.8387L565.394 44.6638L565.248 43.842L564.413 43.8387L564.409 44.8387ZM573.602 96.6016L573.598 97.6016L574.796 97.6063L574.586 96.4267L573.602 96.6016ZM562.65 96.5581L561.663 96.7174L561.798 97.5547L562.646 97.5581L562.65 96.5581ZM559.761 78.6385L559.757 79.6385L560.94 79.6432L560.748 78.4758L559.761 78.6385ZM556.148 56.72L557.135 56.5573L556.65 53.6148L555.263 56.2549L556.148 56.72ZM544.665 78.5785L543.78 78.1135L543.014 79.572L544.661 79.5785L544.665 78.5785ZM561.065 85.7097L540.419 85.6277L540.411 87.6277L561.057 87.7097L561.065 85.7097ZM539.529 86.1637L534.384 95.9854L536.156 96.9134L541.301 87.0918L539.529 86.1637ZM535.274 95.4494L524.396 95.4062L524.388 97.4062L535.266 97.4494L535.274 95.4494ZM525.272 96.8824L553.227 45.267L551.468 44.3145L523.513 95.93L525.272 96.8824ZM552.343 45.7908L564.405 45.8387L564.413 43.8387L552.351 43.7908L552.343 45.7908ZM563.425 45.0135L572.617 96.7764L574.586 96.4267L565.394 44.6638L563.425 45.0135ZM573.606 95.6016L562.654 95.5581L562.646 97.5581L573.598 97.6016L573.606 95.6016ZM563.637 96.3988L562.048 86.5504L560.074 86.869L561.663 96.7174L563.637 96.3988ZM560.748 78.4758L557.135 56.5573L555.161 56.8826L558.774 78.8011L560.748 78.4758ZM555.263 56.2549L543.78 78.1135L545.55 79.0436L557.033 57.185L555.263 56.2549ZM544.661 79.5785L559.757 79.6385L559.765 77.6385L544.669 77.5786L544.661 79.5785ZM599.816 88.7876L598.832 88.6104L598.62 89.7829L599.812 89.7876L599.816 88.7876ZM616.836 88.8552L617.82 89.0339L618.033 87.8599L616.84 87.8552L616.836 88.8552ZM615.398 96.7675L615.394 97.7675L616.232 97.7709L616.382 96.9463L615.398 96.7675ZM587.944 96.6585L586.961 96.4797L586.747 97.6538L587.94 97.6585L587.944 96.6585ZM597.325 45.0434L597.329 44.0434L596.491 44.04L596.342 44.8645L597.325 45.0434ZM607.685 45.0845L608.67 45.2617L608.881 44.0892L607.689 44.0845L607.685 45.0845ZM599.812 89.7876L616.832 89.8552L616.84 87.8552L599.82 87.7876L599.812 89.7876ZM615.852 88.6764L614.414 96.5888L616.382 96.9463L617.82 89.0339L615.852 88.6764ZM615.402 95.7675L587.948 95.6585L587.94 97.6585L615.394 97.7675L615.402 95.7675ZM588.928 96.8373L598.309 45.2222L596.342 44.8645L586.961 96.4797L588.928 96.8373ZM597.321 46.0434L607.681 46.0845L607.689 44.0845L597.329 44.0434L597.321 46.0434ZM606.701 44.9073L598.832 88.6104L600.8 88.9648L608.67 45.2617L606.701 44.9073Z" fill="white"/>
</g>
</g>
</g>
<defs>
<filter id="filter0_d_6_30" x="-0.214844" y="8" width="628.235" height="120.179" filterUnits="userSpaceOnUse" color-interpolation-filters="sRGB">
<feFlood flood-opacity="0" result="BackgroundImageFix"/>
<feColorMatrix in="SourceAlpha" type="matrix" values="0 0 0 0 0 0 0 0 0 0 0 0 0 0 0 0 0 0 127 0" result="hardAlpha"/>
<feOffset dx="-4"/>
<feGaussianBlur stdDeviation="8"/>
<feColorMatrix type="matrix" values="0 0 0 0 0.00833333 0 0 0 0 0.167 0 0 0 0 1 0 0 0 1 0"/>
<feBlend mode="normal" in2="BackgroundImageFix" result="effect1_dropShadow_6_30"/>
<feBlend mode="normal" in="SourceGraphic" in2="effect1_dropShadow_6_30" result="shape"/>
</filter>
<filter id="filter1_d_6_30" x="18.7732" y="19.0198" width="612.235" height="104.179" filterUnits="userSpaceOnUse" color-interpolation-filters="sRGB">
<feFlood flood-opacity="0" result="BackgroundImageFix"/>
<feColorMatrix in="SourceAlpha" type="matrix" values="0 0 0 0 0 0 0 0 0 0 0 0 0 0 0 0 0 0 127 0" result="hardAlpha"/>
<feOffset dx="2"/>
<feGaussianBlur stdDeviation="4"/>
<feColorMatrix type="matrix" values="0 0 0 0 1 0 0 0 0 1 0 0 0 0 0.180392 0 0 0 0.6 0"/>
<feBlend mode="normal" in2="BackgroundImageFix" result="effect1_dropShadow_6_30"/>
<feBlend mode="normal" in="SourceGraphic" in2="effect1_dropShadow_6_30" result="shape"/>
</filter>
<filter id="filter2_d_6_30" x="18.7614" y="28.0119" width="604.235" height="96.1785" filterUnits="userSpaceOnUse" color-interpolation-filters="sRGB">
<feFlood flood-opacity="0" result="BackgroundImageFix"/>
<feColorMatrix in="SourceAlpha" type="matrix" values="0 0 0 0 0 0 0 0 0 0 0 0 0 0 0 0 0 0 127 0" result="hardAlpha"/>
<feOffset dy="2"/>
<feGaussianBlur stdDeviation="2"/>
<feColorMatrix type="matrix" values="0 0 0 0 0.352941 0 0 0 0 1 0 0 0 0 0.960784 0 0 0 0.25 0"/>
<feBlend mode="normal" in2="BackgroundImageFix" result="effect1_dropShadow_6_30"/>
<feBlend mode="normal" in="SourceGraphic" in2="effect1_dropShadow_6_30" result="shape"/>
</filter>
<filter id="filter3_f_6_30" x="-4.21484" y="0" width="650.235" height="142.202" filterUnits="userSpaceOnUse" color-interpolation-filters="sRGB">
<feFlood flood-opacity="0" result="BackgroundImageFix"/>
<feBlend mode="normal" in="SourceGraphic" in2="BackgroundImageFix" result="shape"/>
<feGaussianBlur stdDeviation="12" result="effect1_foregroundBlur_6_30"/>
</filter>
<filter id="filter4_d_6_30" x="-0.214844" y="8" width="628.235" height="120.179" filterUnits="userSpaceOnUse" color-interpolation-filters="sRGB">
<feFlood flood-opacity="0" result="BackgroundImageFix"/>
<feColorMatrix in="SourceAlpha" type="matrix" values="0 0 0 0 0 0 0 0 0 0 0 0 0 0 0 0 0 0 127 0" result="hardAlpha"/>
<feOffset dx="-4"/>
<feGaussianBlur stdDeviation="8"/>
<feColorMatrix type="matrix" values="0 0 0 0 0.00833333 0 0 0 0 0.167 0 0 0 0 1 0 0 0 1 0"/>
<feBlend mode="normal" in2="BackgroundImageFix" result="effect1_dropShadow_6_30"/>
<feBlend mode="normal" in="SourceGraphic" in2="effect1_dropShadow_6_30" result="shape"/>
</filter>
<filter id="filter5_d_6_30" x="18.7732" y="19.0198" width="612.235" height="104.179" filterUnits="userSpaceOnUse" color-interpolation-filters="sRGB">
<feFlood flood-opacity="0" result="BackgroundImageFix"/>
<feColorMatrix in="SourceAlpha" type="matrix" values="0 0 0 0 0 0 0 0 0 0 0 0 0 0 0 0 0 0 127 0" result="hardAlpha"/>
<feOffset dx="2"/>
<feGaussianBlur stdDeviation="4"/>
<feColorMatrix type="matrix" values="0 0 0 0 1 0 0 0 0 1 0 0 0 0 0.180392 0 0 0 0.6 0"/>
<feBlend mode="normal" in2="BackgroundImageFix" result="effect1_dropShadow_6_30"/>
<feBlend mode="normal" in="SourceGraphic" in2="effect1_dropShadow_6_30" result="shape"/>
</filter>
<filter id="filter6_d_6_30" x="18.7614" y="28.0119" width="604.235" height="96.1785" filterUnits="userSpaceOnUse" color-interpolation-filters="sRGB">
<feFlood flood-opacity="0" result="BackgroundImageFix"/>
<feColorMatrix in="SourceAlpha" type="matrix" values="0 0 0 0 0 0 0 0 0 0 0 0 0 0 0 0 0 0 127 0" result="hardAlpha"/>
<feOffset dy="2"/>
<feGaussianBlur stdDeviation="2"/>
<feColorMatrix type="matrix" values="0 0 0 0 0.352941 0 0 0 0 1 0 0 0 0 0.960784 0 0 0 0.25 0"/>
<feBlend mode="normal" in2="BackgroundImageFix" result="effect1_dropShadow_6_30"/>
<feBlend mode="normal" in="SourceGraphic" in2="effect1_dropShadow_6_30" result="shape"/>
</filter>
</defs>
</svg>
